<svg width="115" height="127" viewBox="0 0 115 127" fill="none" xmlns="http://www.w3.org/2000/svg">
<path fill-rule="evenodd" clip-rule="evenodd" d="M51.9198 17.9919C53.9926 16.6064 56.3693 15.874 58.7922 15.874C61.2151 15.874 63.5918 16.6064 65.6647 17.9919L70.545 21.2886C77.3923 25.9109 85.1907 26.9401 93.0251 27.9773C95.5575 28.3133 98.0923 28.6467 100.601 29.1044C100.601 29.1044 100.656 33.9568 100.598 36.1582L100.098 55.0785C99.6663 71.3054 93.1329 86.691 81.9252 97.8722C76.6376 103.145 71.1679 107.911 64.8836 111.869C63.0314 113.025 60.955 113.673 58.8288 113.759C56.7027 113.845 54.5888 113.367 52.6649 112.363C45.4079 108.553 38.9823 103.722 33.1149 97.8722C21.9072 86.691 15.3737 71.3054 14.9449 55.0785L14.4465 36.219C14.3866 33.986 14.4465 29.1044 14.4465 29.1044C16.483 28.8398 18.5578 28.6202 20.6494 28.4006C29.8805 27.4322 39.4183 26.4321 47.2431 21.151L51.9198 17.9919ZM52.708 58.2086V39.6877H62.2913V58.2086H79.0622V68.7919H62.2913V87.3127H52.708V68.7919H35.9372V58.2086H52.708Z" fill="#008C73"/>
</svg>
