<svg width="175" height="198" viewBox="0 0 175 198" fill="none" xmlns="http://www.w3.org/2000/svg">
<path d="M2.15199 191V169.182H10.5043C12.081 169.182 13.3913 169.43 14.4354 169.928C15.4865 170.418 16.2713 171.089 16.7898 171.941C17.3153 172.793 17.5781 173.759 17.5781 174.839C17.5781 175.727 17.4077 176.487 17.0668 177.119C16.7259 177.744 16.2678 178.251 15.6925 178.642C15.1172 179.033 14.4744 179.313 13.7642 179.484V179.697C14.5384 179.739 15.2805 179.977 15.9908 180.411C16.7081 180.837 17.294 181.44 17.7486 182.222C18.2031 183.003 18.4304 183.947 18.4304 185.055C18.4304 186.185 18.157 187.2 17.6101 188.102C17.0632 188.997 16.2393 189.704 15.1385 190.222C14.0376 190.741 12.6527 191 10.9837 191H2.15199ZM6.1044 187.697H10.3551C11.7898 187.697 12.8232 187.424 13.4553 186.877C14.0945 186.323 14.4141 185.613 14.4141 184.746C14.4141 184.1 14.2543 183.518 13.9347 182.999C13.6151 182.474 13.1605 182.062 12.571 181.763C11.9815 181.458 11.2784 181.305 10.4616 181.305H6.1044V187.697ZM6.1044 178.461H10.0142C10.696 178.461 11.3104 178.337 11.8572 178.088C12.4041 177.832 12.8338 177.474 13.1463 177.012C13.4659 176.543 13.6257 175.989 13.6257 175.35C13.6257 174.505 13.3274 173.809 12.7308 173.262C12.1413 172.715 11.2642 172.442 10.0994 172.442H6.1044V178.461ZM28.9426 191.32C27.302 191.32 25.8851 190.979 24.6919 190.297C23.5059 189.608 22.5932 188.635 21.954 187.378C21.3148 186.114 20.9952 184.626 20.9952 182.914C20.9952 181.231 21.3148 179.754 21.954 178.482C22.6003 177.204 23.5023 176.21 24.66 175.499C25.8176 174.782 27.1777 174.423 28.7402 174.423C29.7488 174.423 30.7005 174.587 31.5953 174.913C32.4973 175.233 33.2928 175.73 33.9817 176.405C34.6777 177.08 35.2246 177.939 35.6223 178.983C36.0201 180.02 36.2189 181.256 36.2189 182.69V183.873H22.8063V181.273H32.5222C32.5151 180.535 32.3553 179.878 32.0428 179.303C31.7303 178.72 31.2935 178.262 30.7324 177.928C30.1784 177.594 29.5321 177.428 28.7935 177.428C28.0051 177.428 27.3127 177.619 26.7161 178.003C26.1195 178.379 25.6543 178.876 25.3205 179.494C24.9938 180.105 24.8269 180.776 24.8198 181.508V183.777C24.8198 184.729 24.9938 185.545 25.3418 186.227C25.6898 186.902 26.1763 187.42 26.8013 187.783C27.4263 188.138 28.1578 188.315 28.9959 188.315C29.557 188.315 30.0648 188.237 30.5194 188.081C30.9739 187.918 31.3681 187.68 31.7019 187.367C32.0357 187.055 32.2878 186.668 32.4583 186.206L36.0591 186.611C35.8319 187.562 35.3986 188.393 34.7594 189.104C34.1273 189.807 33.3176 190.354 32.3304 190.744C31.3432 191.128 30.214 191.32 28.9426 191.32ZM53.6293 174.636L47.8018 191H43.5405L37.7131 174.636H41.8253L45.5859 186.792H45.7564L49.5277 174.636H53.6293ZM62.9856 191.32C61.345 191.32 59.9281 190.979 58.7349 190.297C57.5488 189.608 56.6362 188.635 55.997 187.378C55.3578 186.114 55.0382 184.626 55.0382 182.914C55.0382 181.231 55.3578 179.754 55.997 178.482C56.6433 177.204 57.5453 176.21 58.7029 175.499C59.8606 174.782 61.2207 174.423 62.7832 174.423C63.7917 174.423 64.7434 174.587 65.6383 174.913C66.5403 175.233 67.3358 175.73 68.0247 176.405C68.7207 177.08 69.2676 177.939 69.6653 178.983C70.063 180.02 70.2619 181.256 70.2619 182.69V183.873H56.8493V181.273H66.5652C66.5581 180.535 66.3983 179.878 66.0858 179.303C65.7733 178.72 65.3365 178.262 64.7754 177.928C64.2214 177.594 63.5751 177.428 62.8365 177.428C62.0481 177.428 61.3556 177.619 60.7591 178.003C60.1625 178.379 59.6973 178.876 59.3635 179.494C59.0368 180.105 58.8699 180.776 58.8627 181.508V183.777C58.8627 184.729 59.0368 185.545 59.3848 186.227C59.7328 186.902 60.2193 187.42 60.8443 187.783C61.4693 188.138 62.2008 188.315 63.0389 188.315C63.6 188.315 64.1078 188.237 64.5623 188.081C65.0169 187.918 65.411 187.68 65.7449 187.367C66.0787 187.055 66.3308 186.668 66.5012 186.206L70.1021 186.611C69.8748 187.562 69.4416 188.393 68.8024 189.104C68.1703 189.807 67.3606 190.354 66.3734 190.744C65.3862 191.128 64.2569 191.32 62.9856 191.32ZM81.1364 191V169.182H85.0888V178.418H95.1989V169.182H99.1619V191H95.1989V181.732H85.0888V191H81.1364ZM110.534 191.32C108.894 191.32 107.477 190.979 106.284 190.297C105.098 189.608 104.185 188.635 103.546 187.378C102.907 186.114 102.587 184.626 102.587 182.914C102.587 181.231 102.907 179.754 103.546 178.482C104.192 177.204 105.094 176.21 106.252 175.499C107.409 174.782 108.77 174.423 110.332 174.423C111.341 174.423 112.292 174.587 113.187 174.913C114.089 175.233 114.885 175.73 115.574 176.405C116.27 177.08 116.816 177.939 117.214 178.983C117.612 180.02 117.811 181.256 117.811 182.69V183.873H104.398V181.273H114.114C114.107 180.535 113.947 179.878 113.635 179.303C113.322 178.72 112.885 178.262 112.324 177.928C111.77 177.594 111.124 177.428 110.385 177.428C109.597 177.428 108.904 177.619 108.308 178.003C107.711 178.379 107.246 178.876 106.912 179.494C106.586 180.105 106.419 180.776 106.412 181.508V183.777C106.412 184.729 106.586 185.545 106.934 186.227C107.282 186.902 107.768 187.42 108.393 187.783C109.018 188.138 109.75 188.315 110.588 188.315C111.149 188.315 111.657 188.237 112.111 188.081C112.566 187.918 112.96 187.68 113.294 187.367C113.627 187.055 113.88 186.668 114.05 186.206L117.651 186.611C117.424 187.562 116.99 188.393 116.351 189.104C115.719 189.807 114.909 190.354 113.922 190.744C112.935 191.128 111.806 191.32 110.534 191.32ZM125.782 191.33C124.745 191.33 123.811 191.146 122.98 190.776C122.156 190.4 121.503 189.846 121.02 189.114C120.544 188.383 120.306 187.481 120.306 186.408C120.306 185.485 120.477 184.722 120.818 184.118C121.159 183.514 121.624 183.031 122.213 182.669C122.803 182.307 123.467 182.033 124.205 181.849C124.951 181.657 125.722 181.518 126.517 181.433C127.476 181.334 128.254 181.245 128.85 181.167C129.447 181.082 129.88 180.954 130.15 180.783C130.427 180.606 130.566 180.332 130.566 179.963V179.899C130.566 179.097 130.328 178.475 129.852 178.035C129.376 177.594 128.691 177.374 127.796 177.374C126.851 177.374 126.102 177.58 125.548 177.992C125.001 178.404 124.632 178.891 124.44 179.452L120.839 178.94C121.123 177.946 121.592 177.115 122.245 176.447C122.899 175.773 123.698 175.268 124.642 174.935C125.587 174.594 126.631 174.423 127.774 174.423C128.563 174.423 129.347 174.516 130.129 174.7C130.91 174.885 131.624 175.19 132.27 175.616C132.916 176.036 133.435 176.607 133.825 177.332C134.223 178.056 134.422 178.962 134.422 180.048V191H130.715V188.752H130.587C130.352 189.207 130.022 189.633 129.596 190.031C129.177 190.421 128.648 190.737 128.009 190.979C127.377 191.213 126.634 191.33 125.782 191.33ZM126.784 188.496C127.558 188.496 128.229 188.344 128.797 188.038C129.365 187.726 129.802 187.314 130.107 186.803C130.42 186.291 130.576 185.734 130.576 185.13V183.202C130.455 183.301 130.249 183.393 129.958 183.479C129.674 183.564 129.355 183.638 128.999 183.702C128.644 183.766 128.293 183.823 127.945 183.873C127.597 183.923 127.295 183.965 127.039 184.001C126.464 184.079 125.949 184.207 125.494 184.384C125.04 184.562 124.681 184.81 124.419 185.13C124.156 185.442 124.024 185.847 124.024 186.344C124.024 187.055 124.284 187.591 124.802 187.953C125.32 188.315 125.981 188.496 126.784 188.496ZM142.156 169.182V191H138.3V169.182H142.156ZM154.293 174.636V177.619H144.886V174.636H154.293ZM147.209 170.716H151.065V186.078C151.065 186.597 151.143 186.994 151.3 187.271C151.463 187.541 151.676 187.726 151.939 187.825C152.202 187.925 152.493 187.974 152.812 187.974C153.054 187.974 153.274 187.957 153.473 187.921C153.679 187.886 153.835 187.854 153.942 187.825L154.592 190.84C154.386 190.911 154.091 190.989 153.707 191.075C153.331 191.16 152.869 191.21 152.322 191.224C151.357 191.252 150.487 191.107 149.712 190.787C148.938 190.46 148.324 189.956 147.869 189.274C147.422 188.592 147.202 187.74 147.209 186.717V170.716ZM161.727 181.412V191H157.87V169.182H161.642V177.417H161.833C162.217 176.494 162.81 175.766 163.612 175.233C164.422 174.693 165.452 174.423 166.702 174.423C167.838 174.423 168.829 174.661 169.674 175.137C170.519 175.613 171.173 176.309 171.634 177.225C172.103 178.141 172.338 179.26 172.338 180.581V191H168.481V181.178C168.481 180.077 168.197 179.221 167.629 178.61C167.068 177.992 166.279 177.683 165.264 177.683C164.582 177.683 163.971 177.832 163.431 178.131C162.899 178.422 162.48 178.844 162.174 179.398C161.876 179.952 161.727 180.624 161.727 181.412Z" fill="#008C73"/>
<path fill-rule="evenodd" clip-rule="evenodd" d="M81.9198 17.9919C83.9926 16.6064 86.3693 15.874 88.7922 15.874C91.2151 15.874 93.5918 16.6064 95.6647 17.9919L100.545 21.2886C107.392 25.9109 115.191 26.9401 123.025 27.9773C125.557 28.3133 128.092 28.6467 130.601 29.1044C130.601 29.1044 130.656 33.9568 130.598 36.1582L130.098 55.0785C129.666 71.3054 123.133 86.691 111.925 97.8722C106.638 103.145 101.168 107.911 94.8836 111.869C93.0314 113.025 90.955 113.673 88.8288 113.759C86.7027 113.845 84.5888 113.367 82.6649 112.363C75.4079 108.553 68.9823 103.722 63.1149 97.8722C51.9072 86.691 45.3737 71.3054 44.9449 55.0785L44.4465 36.219C44.3866 33.986 44.4465 29.1044 44.4465 29.1044C46.483 28.8398 48.5578 28.6202 50.6494 28.4006C59.8805 27.4322 69.4183 26.4321 77.2431 21.151L81.9198 17.9919ZM82.708 58.2086V39.6877H92.2913V58.2086H109.062V68.7919H92.2913V87.3127H82.708V68.7919H65.9372V58.2086H82.708Z" fill="#008C73"/>
</svg>
