<svg width="364" height="265" viewBox="0 0 364 265" fill="none" xmlns="http://www.w3.org/2000/svg">
<path d="M364 232.878H0V233.056H364V232.878Z" fill="#EBEBEB"/>
<path d="M327.527 244.323H303.416V244.501H327.527V244.323Z" fill="#EBEBEB"/>
<path d="M241.128 246.257H234.802V246.435H241.128V246.257Z" fill="#EBEBEB"/>
<path d="M302.688 237.722H288.718V237.9H302.688V237.722Z" fill="#EBEBEB"/>
<path d="M69.6337 238.917H38.1914V239.095H69.6337V238.917Z" fill="#EBEBEB"/>
<path d="M80.7284 238.917H76.1201V239.095H80.7284V238.917Z" fill="#EBEBEB"/>
<path d="M163.909 241.918H95.71V242.096H163.909V241.918Z" fill="#EBEBEB"/>
<path d="M172.536 201.154H31.966C30.8648 201.152 29.8093 200.724 29.0314 199.962C28.2534 199.201 27.8164 198.169 27.8164 197.093V4.02593C27.826 2.95616 28.2672 1.93328 29.0441 1.17948C29.8211 0.42568 30.8711 0.00183257 31.966 0H172.536C173.638 0 174.695 0.427906 175.475 1.18958C176.254 1.95126 176.692 2.98432 176.692 4.06149V197.093C176.692 198.17 176.254 199.203 175.475 199.965C174.695 200.726 173.638 201.154 172.536 201.154ZM31.966 0.14226C30.9131 0.144144 29.9039 0.554145 29.16 1.28227C28.4162 2.0104 27.9984 2.99715 27.9984 4.02593V197.093C27.9984 198.122 28.4162 199.108 29.16 199.836C29.9039 200.565 30.9131 200.975 31.966 200.976H172.536C173.589 200.975 174.599 200.565 175.344 199.837C176.089 199.109 176.508 198.122 176.51 197.093V4.02593C176.508 2.99649 176.089 2.00976 175.344 1.28184C174.599 0.553914 173.589 0.14414 172.536 0.14226H31.966Z" fill="#EBEBEB"/>
<path d="M330.01 201.154H189.433C188.331 201.152 187.275 200.724 186.496 199.963C185.717 199.201 185.278 198.169 185.276 197.093V4.02593C185.288 2.95551 185.731 1.93264 186.509 1.17904C187.287 0.425432 188.338 0.00181259 189.433 0H330.01C331.104 0.00370193 332.152 0.428377 332.927 1.18198C333.703 1.93558 334.143 2.95739 334.152 4.02593V197.093C334.152 198.167 333.716 199.198 332.94 199.96C332.164 200.721 331.11 201.15 330.01 201.154ZM189.433 0.14226C188.38 0.14414 187.37 0.553914 186.625 1.28184C185.88 2.00976 185.46 2.99649 185.458 4.02593V197.093C185.46 198.122 185.88 199.109 186.625 199.837C187.37 200.565 188.38 200.975 189.433 200.976H330.01C331.064 200.975 332.074 200.565 332.819 199.837C333.564 199.109 333.983 198.122 333.985 197.093V4.02593C333.983 2.99649 333.564 2.00976 332.819 1.28184C332.074 0.553914 331.064 0.14414 330.01 0.14226H189.433Z" fill="#EBEBEB"/>
<path d="M202.456 131.86H312.202V36.7102L202.456 36.7102V131.86Z" fill="#E6E6E6"/>
<path d="M309.451 39.3203H205.34V129.306H309.451V39.3203Z" fill="#F0F0F0"/>
<path d="M285.02 39.3203L309.451 129.107V86.9131L296.551 39.3203H285.02Z" fill="white"/>
<path d="M276.363 39.3203L301.013 129.306H304.945L280.294 39.3203H276.363Z" fill="white"/>
<path d="M205.34 96.103V110.478L210.327 129.306H214.258L205.34 96.103Z" fill="white"/>
<path d="M273.138 131.319H274.893V37.7058H273.138V131.319Z" fill="#E6E6E6"/>
<path d="M239.156 131.319H240.91V37.7058H239.156V131.319Z" fill="#E6E6E6"/>
<path d="M49.2349 96.5371L154.06 96.5371V66.0795L49.2349 66.0795V96.5371Z" fill="#E6E6E6"/>
<path d="M67.7042 96.5371L154.06 96.5371V66.0795L67.7042 66.0795V96.5371Z" fill="#F0F0F0"/>
<path d="M96.0967 93.6704H70.7695V68.9529H96.0967V93.6704ZM71.5194 92.9591H95.3687V69.6642H71.4975L71.5194 92.9591Z" fill="#EBEBEB"/>
<path d="M150.769 93.6704H128.696V68.9529H150.769V93.6704ZM129.424 92.9591H150.041V69.6642H129.424V92.9591Z" fill="#EBEBEB"/>
<path d="M121.139 84.3381H126.177V78.285H121.139V84.3381Z" fill="#FAFAFA"/>
<path d="M114.077 84.3381H119.115V78.285H114.077V84.3381Z" fill="#FAFAFA"/>
<path d="M107.024 84.3381H112.062V78.285H107.024V84.3381Z" fill="#FAFAFA"/>
<path d="M99.9691 84.3381H105.007V78.285H99.9691V84.3381Z" fill="#FAFAFA"/>
<path d="M65.9855 64.7065H68.5771V52.1877H65.9855V64.7065Z" fill="#E0E0E0"/>
<path d="M60.4526 64.1445H74.1172L74.8452 66.0864H59.7246L60.4526 64.1445Z" fill="#E0E0E0"/>
<path d="M56.2744 55.4241H78.3037V36.7099H56.2744V55.4241Z" fill="#F5F5F5"/>
<path d="M137.381 64.7065H139.973V52.1877H137.381V64.7065Z" fill="#E0E0E0"/>
<path d="M131.841 64.1445H145.506L146.234 66.0864H131.113L131.841 64.1445Z" fill="#E0E0E0"/>
<path d="M127.662 55.4241H149.691V36.7099H127.662V55.4241Z" fill="#F5F5F5"/>
<path d="M289.133 202.093L298.393 176.024C298.393 176.024 285.551 185.321 285.638 175.007C285.725 164.693 291.462 172.702 293.486 168.897C295.51 165.092 287.793 165.127 290.494 159.351C293.195 153.576 300.868 162.446 302.229 157.331C303.591 152.217 305.76 149.607 311.337 150.083C311.337 150.083 314.358 156.819 310.652 161.685C306.947 166.55 319.818 162.652 318.507 167.546C317.197 172.439 312.902 176.707 311.016 173.236C309.131 169.765 306.721 176.387 309.953 178.094C313.186 179.801 305.724 187.163 304.086 183.301C302.951 180.729 301.543 178.28 299.885 175.996L291.353 203.893L289.133 202.093Z" fill="#EBEBEB"/>
<path d="M279.588 202.328L269.149 185.648C269.149 185.648 279.479 190.193 277.819 183.066C276.159 175.939 273.415 182.355 271.442 179.993C269.469 177.632 274.805 176.551 272.039 172.951C269.273 169.352 265.341 176.629 263.609 173.286C261.876 169.943 259.969 168.463 256.183 169.601C256.183 169.601 255.135 174.708 258.447 177.532C261.76 180.356 252.259 179.552 253.919 182.746C255.579 185.94 259.212 188.258 259.991 185.591C260.77 182.924 263.449 187.142 261.447 188.792C259.445 190.442 265.771 194.447 266.31 191.53C266.697 189.578 267.292 187.671 268.086 185.84L278.278 203.886L279.588 202.328Z" fill="#E6E6E6"/>
<path d="M286.621 202.484L281.838 175.626C281.838 175.626 292.845 186.693 294.439 176.622C296.034 166.55 289.118 173.463 287.785 169.437C286.453 165.412 293.952 166.649 292.255 160.596C290.559 154.543 281.634 162.019 281.146 156.805C280.658 151.591 278.962 148.732 273.451 148.312C273.451 148.312 269.403 154.408 272.221 159.693C275.038 164.978 263.135 159.216 263.608 164.188C264.082 169.16 267.583 173.997 269.986 170.931C272.388 167.866 273.662 174.673 270.226 175.832C266.79 176.991 272.876 185.328 275.096 181.821C276.626 179.492 278.4 177.326 280.389 175.355L284.16 203.878L286.621 202.484Z" fill="#F0F0F0"/>
<path d="M292.146 232.444H273.444C272.814 232.444 272.209 232.209 271.75 231.787C271.292 231.365 271.015 230.789 270.976 230.175L268.989 198.651C268.969 198.321 269.018 197.991 269.134 197.681C269.249 197.371 269.428 197.088 269.66 196.848C269.892 196.608 270.172 196.417 270.482 196.287C270.792 196.156 271.126 196.089 271.464 196.09H294.112C294.449 196.089 294.783 196.156 295.093 196.287C295.403 196.417 295.682 196.608 295.913 196.848C296.145 197.088 296.323 197.372 296.438 197.682C296.552 197.992 296.601 198.322 296.58 198.651L294.622 230.175C294.583 230.79 294.305 231.368 293.845 231.789C293.385 232.211 292.777 232.445 292.146 232.444Z" fill="#E0E0E0"/>
<path d="M296.362 194.802H268.997C267.638 194.802 266.536 195.879 266.536 197.206V197.235C266.536 198.563 267.638 199.639 268.997 199.639H296.362C297.721 199.639 298.823 198.563 298.823 197.235V197.206C298.823 195.879 297.721 194.802 296.362 194.802Z" fill="#EBEBEB"/>
<path d="M182 265C259.956 265 323.152 261.395 323.152 256.948C323.152 252.501 259.956 248.896 182 248.896C104.044 248.896 40.8477 252.501 40.8477 256.948C40.8477 261.395 104.044 265 182 265Z" fill="#F5F5F5"/>
<path d="M250.046 139.072H277.783V140.168C277.783 141.3 277.323 142.385 276.504 143.185C275.685 143.986 274.574 144.435 273.415 144.435H254.392C253.234 144.435 252.123 143.986 251.304 143.185C250.485 142.385 250.024 141.3 250.024 140.168V139.072H250.046Z" fill="#008C73" fill-opacity="0.39"/>
<path opacity="0.3" d="M250.046 139.072H277.783V140.168C277.783 141.3 277.323 142.385 276.504 143.185C275.685 143.986 274.574 144.435 273.415 144.435H254.392C253.234 144.435 252.123 143.986 251.304 143.185C250.485 142.385 250.024 141.3 250.024 140.168V139.072H250.046Z" fill="black"/>
<path d="M269.084 144.407H258.761V243.099H269.084V144.407Z" fill="#263238"/>
<path opacity="0.4" d="M269.084 144.407H258.761V243.099H269.084V144.407Z" fill="white"/>
<path d="M288.514 243.099H239.323V247.424H288.514V243.099Z" fill="#263238"/>
<path opacity="0.5" d="M288.514 243.099H239.323V247.424H288.514V243.099Z" fill="white"/>
<path d="M288.513 255.049C290.668 255.049 292.415 253.342 292.415 251.237C292.415 249.131 290.668 247.424 288.513 247.424C286.358 247.424 284.611 249.131 284.611 251.237C284.611 253.342 286.358 255.049 288.513 255.049Z" fill="#263238"/>
<path opacity="0.3" d="M288.514 253.129C289.583 253.129 290.45 252.281 290.45 251.237C290.45 250.192 289.583 249.344 288.514 249.344C287.444 249.344 286.577 250.192 286.577 251.237C286.577 252.281 287.444 253.129 288.514 253.129Z" fill="black"/>
<path d="M284.611 249.323L286.628 251.237H288.513V247.417H284.611V249.323Z" fill="#263238"/>
<path opacity="0.4" d="M284.611 249.323L286.628 251.237H288.513V247.417H284.611V249.323Z" fill="white"/>
<path d="M239.323 255.049C241.478 255.049 243.225 253.342 243.225 251.237C243.225 249.131 241.478 247.424 239.323 247.424C237.168 247.424 235.421 249.131 235.421 251.237C235.421 253.342 237.168 255.049 239.323 255.049Z" fill="#263238"/>
<path opacity="0.3" d="M239.323 253.129C240.393 253.129 241.26 252.281 241.26 251.237C241.26 250.192 240.393 249.344 239.323 249.344C238.254 249.344 237.387 250.192 237.387 251.237C237.387 252.281 238.254 253.129 239.323 253.129Z" fill="black"/>
<path d="M243.225 249.323L241.201 251.237H239.323V247.417H243.225V249.323Z" fill="#263238"/>
<path opacity="0.2" d="M243.225 249.323L241.201 251.237H239.323V247.417H243.225V249.323Z" fill="white"/>
<path d="M276.969 116.795H250.87C248.035 116.795 245.737 119.04 245.737 121.809V134.058C245.737 136.827 248.035 139.072 250.87 139.072H276.969C279.803 139.072 282.101 136.827 282.101 134.058V121.809C282.101 119.04 279.803 116.795 276.969 116.795Z" fill="#008C73" fill-opacity="0.39"/>
<path opacity="0.5" d="M276.969 116.795H250.87C248.035 116.795 245.737 119.04 245.737 121.809V134.058C245.737 136.827 248.035 139.072 250.87 139.072H276.969C279.803 139.072 282.101 136.827 282.101 134.058V121.809C282.101 119.04 279.803 116.795 276.969 116.795Z" fill="white"/>
<path d="M271.29 118.865H250.105V133.674H271.29V118.865Z" fill="#E0E0E0"/>
<path d="M279.64 136.718C280.693 136.718 281.547 135.884 281.547 134.854C281.547 133.825 280.693 132.991 279.64 132.991C278.586 132.991 277.732 133.825 277.732 134.854C277.732 135.884 278.586 136.718 279.64 136.718Z" fill="#263238"/>
<path d="M279.968 130.537C280.844 130.537 281.555 130.25 281.555 129.897C281.555 129.543 280.844 129.256 279.968 129.256C279.091 129.256 278.381 129.543 278.381 129.897C278.381 130.25 279.091 130.537 279.968 130.537Z" fill="#263238"/>
<path d="M279.968 128.666C280.844 128.666 281.555 128.379 281.555 128.026C281.555 127.672 280.844 127.386 279.968 127.386C279.091 127.386 278.381 127.672 278.381 128.026C278.381 128.379 279.091 128.666 279.968 128.666Z" fill="#263238"/>
<path d="M279.968 126.803C280.844 126.803 281.555 126.516 281.555 126.162C281.555 125.809 280.844 125.522 279.968 125.522C279.091 125.522 278.381 125.809 278.381 126.162C278.381 126.516 279.091 126.803 279.968 126.803Z" fill="#263238"/>
<path d="M279.968 124.932C280.844 124.932 281.555 124.645 281.555 124.292C281.555 123.938 280.844 123.652 279.968 123.652C279.091 123.652 278.381 123.938 278.381 124.292C278.381 124.645 279.091 124.932 279.968 124.932Z" fill="#263238"/>
<path d="M279.968 123.068C280.844 123.068 281.555 122.782 281.555 122.428C281.555 122.074 280.844 121.788 279.968 121.788C279.091 121.788 278.381 122.074 278.381 122.428C278.381 122.782 279.091 123.068 279.968 123.068Z" fill="#263238"/>
<path d="M279.968 121.198C280.844 121.198 281.555 120.911 281.555 120.557C281.555 120.204 280.844 119.917 279.968 119.917C279.091 119.917 278.381 120.204 278.381 120.557C278.381 120.911 279.091 121.198 279.968 121.198Z" fill="#263238"/>
<path d="M274.784 138.539C275.118 138.539 275.388 138.275 275.388 137.949C275.388 137.622 275.118 137.358 274.784 137.358C274.45 137.358 274.18 137.622 274.18 137.949C274.18 138.275 274.45 138.539 274.784 138.539Z" fill="#263238"/>
<path d="M272.164 138.539C272.498 138.539 272.768 138.275 272.768 137.949C272.768 137.622 272.498 137.358 272.164 137.358C271.83 137.358 271.56 137.622 271.56 137.949C271.56 138.275 271.83 138.539 272.164 138.539Z" fill="#263238"/>
<path d="M271.479 115.813H249.916C247.608 115.813 245.737 117.641 245.737 119.896V132.642C245.737 134.897 247.608 136.725 249.916 136.725H271.479C273.787 136.725 275.658 134.897 275.658 132.642V119.896C275.658 117.641 273.787 115.813 271.479 115.813Z" fill="#008C73" fill-opacity="0.39"/>
<path opacity="0.2" d="M271.479 115.813H249.916C247.608 115.813 245.737 117.641 245.737 119.896V132.642C245.737 134.897 247.608 136.725 249.916 136.725H271.479C273.787 136.725 275.658 134.897 275.658 132.642V119.896C275.658 117.641 273.787 115.813 271.479 115.813Z" fill="black"/>
<path d="M272.782 119.042H248.758V134.036H272.782V119.042Z" fill="#263238"/>
<path opacity="0.7" d="M272.782 119.042H248.758V134.036H272.782V119.042Z" fill="white"/>
<path d="M255.871 127.613C255.705 127.511 255.571 127.366 255.485 127.194C255.391 126.988 255.344 126.764 255.347 126.539C255.343 126.314 255.39 126.09 255.485 125.885C255.569 125.711 255.703 125.565 255.871 125.465C256.041 125.372 256.233 125.323 256.428 125.323C256.623 125.323 256.815 125.372 256.985 125.465C257.153 125.565 257.287 125.711 257.371 125.885C257.466 126.09 257.513 126.314 257.509 126.539C257.512 126.764 257.465 126.988 257.371 127.194C257.285 127.366 257.151 127.511 256.985 127.613C256.815 127.707 256.623 127.756 256.428 127.756C256.233 127.756 256.041 127.707 255.871 127.613ZM256.701 126.539C256.701 126.148 256.606 125.949 256.424 125.949C256.242 125.949 256.155 126.148 256.155 126.539C256.155 126.93 256.25 127.13 256.424 127.13C256.599 127.13 256.701 126.93 256.701 126.539Z" fill="#008C73" fill-opacity="0.39"/>
<path d="M258.222 127.613C258.058 127.511 257.926 127.366 257.843 127.194C257.745 126.99 257.697 126.765 257.705 126.539C257.697 126.314 257.745 126.089 257.843 125.885C257.924 125.712 258.056 125.566 258.222 125.465C258.392 125.37 258.586 125.32 258.782 125.323C258.979 125.321 259.172 125.37 259.343 125.465C259.507 125.568 259.638 125.713 259.721 125.885C259.82 126.089 259.868 126.314 259.86 126.539C259.868 126.765 259.82 126.99 259.721 127.194C259.636 127.364 259.505 127.509 259.343 127.613C259.172 127.709 258.979 127.758 258.782 127.756C258.586 127.758 258.392 127.709 258.222 127.613ZM259.052 126.539C259.052 126.148 258.964 125.949 258.782 125.949C258.6 125.949 258.506 126.148 258.506 126.539C258.506 126.931 258.6 127.13 258.782 127.13C258.964 127.13 259.052 126.931 259.052 126.539Z" fill="#008C73" fill-opacity="0.39"/>
<path d="M256.148 131.96C255.984 131.857 255.853 131.712 255.769 131.54C255.67 131.336 255.623 131.111 255.631 130.885C255.623 130.66 255.67 130.435 255.769 130.231C255.853 130.061 255.984 129.918 256.148 129.819C256.316 129.718 256.511 129.666 256.708 129.669C256.906 129.665 257.1 129.717 257.269 129.819C257.434 129.916 257.566 130.06 257.647 130.231C257.746 130.435 257.793 130.66 257.786 130.885C257.793 131.111 257.746 131.336 257.647 131.54C257.566 131.713 257.434 131.859 257.269 131.96C257.1 132.059 256.905 132.108 256.708 132.102C256.511 132.107 256.317 132.058 256.148 131.96ZM256.985 130.878C256.985 130.487 256.89 130.295 256.708 130.295C256.526 130.295 256.439 130.487 256.439 130.878C256.439 131.27 256.526 131.469 256.708 131.469C256.89 131.469 256.985 131.277 256.985 130.878Z" fill="#008C73" fill-opacity="0.39"/>
<path d="M258.506 131.96C258.338 131.86 258.204 131.714 258.12 131.54C258.025 131.334 257.978 131.111 257.982 130.885C257.979 130.66 258.026 130.437 258.12 130.231C258.204 130.059 258.338 129.916 258.506 129.819C258.674 129.717 258.869 129.665 259.066 129.669C259.262 129.665 259.454 129.717 259.62 129.819C259.787 129.916 259.921 130.059 260.005 130.231C260.1 130.437 260.147 130.66 260.144 130.885C260.148 131.111 260.1 131.334 260.005 131.54C259.922 131.713 259.789 131.858 259.622 131.958C259.455 132.058 259.262 132.108 259.066 132.102C258.869 132.108 258.675 132.059 258.506 131.96ZM259.336 130.885C259.336 130.494 259.241 130.302 259.066 130.302C258.892 130.302 258.79 130.494 258.79 130.885C258.79 131.277 258.884 131.476 259.066 131.476C259.248 131.476 259.336 131.277 259.336 130.878V130.885Z" fill="#008C73" fill-opacity="0.39"/>
<path d="M262.081 131.96C261.915 131.859 261.784 131.713 261.703 131.54C261.604 131.336 261.557 131.111 261.564 130.885C261.557 130.66 261.604 130.435 261.703 130.231C261.784 130.06 261.916 129.916 262.081 129.819C262.249 129.717 262.444 129.665 262.642 129.669C262.839 129.666 263.034 129.718 263.202 129.819C263.366 129.918 263.497 130.061 263.581 130.231C263.679 130.435 263.727 130.66 263.719 130.885C263.727 131.111 263.679 131.336 263.581 131.54C263.5 131.714 263.367 131.861 263.199 131.961C263.032 132.062 262.838 132.11 262.642 132.102C262.445 132.108 262.25 132.059 262.081 131.96ZM262.911 130.885C262.911 130.494 262.824 130.302 262.642 130.302C262.46 130.302 262.365 130.494 262.365 130.885C262.365 131.277 262.46 131.476 262.642 131.476C262.824 131.476 262.94 131.277 262.94 130.878L262.911 130.885Z" fill="#008C73" fill-opacity="0.39"/>
<path d="M264.461 131.96C264.297 131.857 264.166 131.712 264.082 131.54C263.984 131.336 263.936 131.111 263.944 130.885C263.936 130.66 263.984 130.435 264.082 130.231C264.166 130.061 264.297 129.918 264.461 129.819C264.63 129.718 264.824 129.666 265.022 129.669C265.219 129.665 265.414 129.717 265.582 129.819C265.747 129.916 265.879 130.06 265.961 130.231C266.059 130.435 266.107 130.66 266.099 130.885C266.107 131.111 266.059 131.336 265.961 131.54C265.88 131.713 265.748 131.859 265.582 131.96C265.413 132.059 265.219 132.108 265.022 132.102C264.825 132.107 264.63 132.058 264.461 131.96ZM265.298 130.885C265.298 130.494 265.204 130.302 265.022 130.302C264.84 130.302 264.752 130.494 264.752 130.885C264.752 131.277 264.84 131.476 265.022 131.476C265.204 131.476 265.298 131.277 265.298 130.878V130.885Z" fill="#008C73" fill-opacity="0.39"/>
<path d="M262.503 127.613C262.339 127.511 262.208 127.366 262.124 127.194C262.026 126.989 261.978 126.765 261.986 126.539C261.978 126.314 262.026 126.089 262.124 125.885C262.206 125.712 262.337 125.566 262.503 125.465C262.674 125.372 262.867 125.323 263.064 125.323C263.26 125.323 263.453 125.372 263.624 125.465C263.79 125.566 263.922 125.712 264.003 125.885C264.101 126.089 264.149 126.314 264.141 126.539C264.149 126.765 264.101 126.989 264.003 127.194C263.92 127.366 263.788 127.511 263.624 127.613C263.453 127.707 263.26 127.756 263.064 127.756C262.867 127.756 262.674 127.707 262.503 127.613ZM263.333 126.539C263.333 126.148 263.246 125.949 263.064 125.949C262.882 125.949 262.794 126.148 262.794 126.539C262.794 126.931 262.882 127.13 263.064 127.13C263.246 127.13 263.333 126.931 263.333 126.539Z" fill="#008C73" fill-opacity="0.39"/>
<path d="M264.854 127.613C264.692 127.509 264.561 127.364 264.475 127.194C264.381 126.988 264.334 126.765 264.337 126.539C264.333 126.314 264.381 126.091 264.475 125.885C264.559 125.713 264.69 125.568 264.854 125.465C265.025 125.37 265.218 125.321 265.415 125.323C265.611 125.32 265.805 125.37 265.975 125.465C266.141 125.567 266.275 125.713 266.361 125.885C266.453 126.091 266.498 126.315 266.492 126.539C266.497 126.764 266.452 126.987 266.361 127.194C266.273 127.365 266.139 127.509 265.975 127.613C265.805 127.709 265.611 127.758 265.415 127.756C265.218 127.758 265.025 127.709 264.854 127.613ZM265.72 126.539C265.72 126.148 265.626 125.949 265.444 125.949C265.262 125.949 265.174 126.148 265.174 126.539C265.174 126.931 265.262 127.13 265.444 127.13C265.626 127.13 265.72 126.931 265.72 126.539Z" fill="#008C73" fill-opacity="0.39"/>
<path d="M260.981 130.103H261.352L260.792 131.668H260.457L260.981 130.103Z" fill="#008C73" fill-opacity="0.39"/>
<path d="M262.743 121.98H249.581V122.144H262.743V121.98Z" fill="#008C73" fill-opacity="0.39"/>
<path d="M263.711 123.452V120.899H263.58V123.452V123.58H263.711H271.69V123.452H263.711Z" fill="#008C73" fill-opacity="0.39"/>
<path d="M266.099 112.826H256.926C256.492 112.826 256.075 112.657 255.768 112.357C255.461 112.057 255.288 111.65 255.288 111.225C255.288 110.801 255.461 110.394 255.768 110.094C256.075 109.793 256.492 109.625 256.926 109.625H266.099C266.533 109.625 266.95 109.793 267.257 110.094C267.564 110.394 267.737 110.801 267.737 111.225C267.737 111.65 267.564 112.057 267.257 112.357C266.95 112.657 266.533 112.826 266.099 112.826Z" fill="#263238"/>
<path opacity="0.1" d="M266.099 112.826H256.926C256.492 112.826 256.075 112.657 255.768 112.357C255.461 112.057 255.288 111.65 255.288 111.225C255.288 110.801 255.461 110.394 255.768 110.094C256.075 109.793 256.492 109.625 256.926 109.625H266.099C266.533 109.625 266.95 109.793 267.257 110.094C267.564 110.394 267.737 110.801 267.737 111.225C267.737 111.65 267.564 112.057 267.257 112.357C266.95 112.657 266.533 112.826 266.099 112.826Z" fill="white"/>
<path d="M255.288 110.372V115.813H253.978V111.673C253.975 111.503 254.007 111.335 254.071 111.177C254.136 111.019 254.232 110.875 254.354 110.754C254.476 110.633 254.621 110.537 254.782 110.471C254.942 110.405 255.114 110.372 255.288 110.372Z" fill="#263238"/>
<path opacity="0.3" d="M255.288 110.372V115.813H253.978V111.673C253.975 111.503 254.007 111.335 254.071 111.177C254.136 111.019 254.232 110.875 254.354 110.754C254.476 110.633 254.621 110.537 254.782 110.471C254.942 110.405 255.114 110.372 255.288 110.372Z" fill="white"/>
<path d="M267.737 110.372V115.813H269.048V111.673C269.052 111.503 269.021 111.334 268.956 111.176C268.892 111.017 268.796 110.873 268.674 110.752C268.552 110.631 268.406 110.534 268.245 110.469C268.084 110.404 267.912 110.371 267.737 110.372Z" fill="#263238"/>
<path opacity="0.3" d="M267.737 110.372V115.813H269.048V111.673C269.052 111.503 269.021 111.334 268.956 111.176C268.892 111.017 268.796 110.873 268.674 110.752C268.552 110.631 268.406 110.534 268.245 110.469C268.084 110.404 267.912 110.371 267.737 110.372Z" fill="white"/>
<path d="M209.002 251.109H210.785L210.785 54.0444H209.002L209.002 251.109Z" fill="#263238"/>
<path opacity="0.3" d="M209.002 251.109H210.785L210.785 54.0444H209.002L209.002 251.109Z" fill="white"/>
<path d="M220.642 59.3151H225.01V58.1628H221.719L221.712 57.2666H220.642V59.3151Z" fill="#263238"/>
<path opacity="0.1" d="M220.642 59.3151H225.01V58.1628H221.719L221.712 57.2666H220.642V59.3151Z" fill="white"/>
<path d="M199.014 59.3151H194.646V58.1628H197.929L197.943 57.2666H199.014V59.3151Z" fill="#263238"/>
<path opacity="0.1" d="M199.014 59.3151H194.646V58.1628H197.929L197.943 57.2666H199.014V59.3151Z" fill="white"/>
<path d="M227.449 256.109C227.449 256.641 227.611 257.16 227.913 257.603C228.215 258.045 228.645 258.389 229.148 258.593C229.651 258.796 230.204 258.85 230.738 258.746C231.272 258.642 231.762 258.386 232.147 258.01C232.532 257.634 232.794 257.155 232.9 256.633C233.006 256.112 232.952 255.571 232.743 255.08C232.535 254.589 232.182 254.169 231.73 253.873C231.277 253.578 230.745 253.42 230.201 253.42C229.472 253.422 228.773 253.706 228.257 254.21C227.742 254.714 227.451 255.396 227.449 256.109Z" fill="#263238"/>
<path opacity="0.3" d="M229.108 256.109C229.107 256.32 229.17 256.527 229.289 256.703C229.408 256.88 229.578 257.018 229.777 257.099C229.977 257.181 230.197 257.203 230.409 257.163C230.621 257.123 230.817 257.022 230.97 256.873C231.123 256.724 231.228 256.534 231.271 256.327C231.314 256.119 231.292 255.905 231.21 255.709C231.128 255.514 230.988 255.347 230.808 255.229C230.628 255.112 230.417 255.049 230.2 255.049C229.912 255.049 229.635 255.16 229.431 255.359C229.226 255.557 229.11 255.827 229.108 256.109Z" fill="black"/>
<path d="M230.201 256.109L227.449 255.099C227.588 254.576 227.885 254.105 228.302 253.75C228.719 253.394 229.236 253.17 229.786 253.107C230.337 253.018 230.903 253.089 231.413 253.312C231.923 253.534 232.355 253.899 232.654 254.359L230.201 256.109Z" fill="#263238"/>
<path opacity="0.2" d="M230.201 256.109L227.449 255.099C227.588 254.576 227.885 254.105 228.302 253.75C228.719 253.394 229.236 253.17 229.786 253.107C230.337 253.018 230.903 253.089 231.413 253.312C231.923 253.534 232.355 253.899 232.654 254.359L230.201 256.109Z" fill="black"/>
<path d="M192.192 256.109C192.192 256.641 192.031 257.16 191.728 257.603C191.426 258.045 190.996 258.389 190.493 258.593C189.991 258.796 189.437 258.85 188.903 258.746C188.37 258.642 187.879 258.386 187.494 258.01C187.11 257.634 186.848 257.155 186.741 256.633C186.635 256.112 186.69 255.571 186.898 255.08C187.106 254.589 187.459 254.169 187.911 253.873C188.364 253.578 188.896 253.42 189.44 253.42C190.17 253.422 190.868 253.706 191.384 254.21C191.9 254.714 192.19 255.396 192.192 256.109Z" fill="#263238"/>
<path opacity="0.3" d="M190.518 256.109C190.519 256.32 190.457 256.527 190.337 256.704C190.218 256.88 190.048 257.018 189.849 257.1C189.65 257.182 189.43 257.204 189.217 257.163C189.005 257.123 188.81 257.022 188.656 256.873C188.503 256.724 188.398 256.534 188.356 256.327C188.313 256.12 188.334 255.905 188.416 255.709C188.499 255.514 188.639 255.347 188.819 255.229C188.998 255.112 189.21 255.049 189.426 255.049C189.714 255.049 189.991 255.16 190.196 255.359C190.4 255.558 190.516 255.827 190.518 256.109Z" fill="black"/>
<path d="M189.426 256.109L192.178 255.099C192.04 254.576 191.743 254.107 191.328 253.752C190.912 253.396 190.397 253.172 189.848 253.107C189.296 253.017 188.729 253.088 188.218 253.311C187.706 253.533 187.273 253.898 186.973 254.359L189.426 256.109Z" fill="#263238"/>
<path opacity="0.2" d="M189.426 256.109L192.178 255.099C192.04 254.576 191.743 254.107 191.328 253.752C190.912 253.396 190.397 253.172 189.848 253.107C189.296 253.017 188.729 253.088 188.218 253.311C187.706 253.533 187.273 253.898 186.973 254.359L189.426 256.109Z" fill="black"/>
<path d="M198.06 65.2045L198.788 65.0694C198.788 65.0694 198.06 61.5129 197.929 60.0049C197.739 58.12 197.004 57.4585 196.429 57.4585C195.854 57.4585 195.381 58.369 195.038 60.1685C194.849 61.143 194.856 64.8204 194.856 64.9769H195.584C195.584 64.9769 195.584 61.207 195.752 60.3037C195.825 59.5474 196.074 58.8175 196.48 58.1698C196.545 58.1698 197.04 58.6392 197.208 60.0903C197.375 61.5413 198.016 65.0622 198.06 65.2045Z" fill="#008C73" fill-opacity="0.39"/>
<path d="M192.061 87.4183C192.367 88.5279 195.111 91.615 196.509 91.615C197.907 91.615 201.227 89.3388 201.605 87.8735C201.984 86.4083 200.47 83.5204 200.266 81.4719C200.062 79.4234 201.139 70.5962 201.037 68.6259C200.935 66.6556 200.309 65.8945 199.385 65.1335C198.46 64.3724 194.398 64.2657 193.685 65.1335C192.971 66.0012 192.083 66.7552 192.083 68.3201C192.083 69.8849 193.219 80.0066 193.168 81.6284C193.117 83.2501 191.748 86.3016 192.061 87.4183Z" fill="#008C73" fill-opacity="0.39"/>
<path opacity="0.6" d="M192.061 87.4183C192.367 88.5279 195.111 91.615 196.509 91.615C197.907 91.615 201.227 89.3388 201.605 87.8735C201.984 86.4083 200.47 83.5204 200.266 81.4719C200.062 79.4234 201.139 70.5962 201.037 68.6259C200.935 66.6556 200.309 65.8945 199.385 65.1335C198.46 64.3724 194.398 64.2657 193.685 65.1335C192.971 66.0012 192.083 66.7552 192.083 68.3201C192.083 69.8849 193.219 80.0066 193.168 81.6284C193.117 83.2501 191.748 86.3016 192.061 87.4183Z" fill="white"/>
<path d="M192.578 86.8634C192.826 87.7597 195.701 90.2492 196.83 90.2492C197.958 90.2492 200.426 88.1153 200.717 86.963C201.008 85.8107 199.749 82.4676 199.582 80.7961C199.414 79.1245 200.31 72.0116 200.208 70.4183C199.48 68.9032 192.979 68.9032 192.979 70.1693C192.979 71.4354 193.896 79.6082 193.852 80.917C193.809 82.2258 192.323 85.9601 192.578 86.8634Z" fill="#008C73" fill-opacity="0.39"/>
<path opacity="0.2" d="M192.578 86.8634C192.826 87.7597 195.701 90.2492 196.83 90.2492C197.958 90.2492 200.426 88.1153 200.717 86.963C201.008 85.8107 199.749 82.4676 199.582 80.7961C199.414 79.1245 200.31 72.0116 200.208 70.4183C199.48 68.9032 192.979 68.9032 192.979 70.1693C192.979 71.4354 193.896 79.6082 193.852 80.917C193.809 82.2258 192.323 85.9601 192.578 86.8634Z" fill="white"/>
<path d="M194.419 65.1405H198.897C198.983 65.1405 199.069 65.1237 199.149 65.0911C199.229 65.0585 199.301 65.0107 199.362 64.9505C199.423 64.8903 199.471 64.8189 199.504 64.7404C199.536 64.6619 199.553 64.5779 199.552 64.4932C199.553 64.4086 199.536 64.3246 199.504 64.2461C199.471 64.1676 199.423 64.0962 199.362 64.036C199.301 63.9758 199.229 63.928 199.149 63.8954C199.069 63.8627 198.983 63.8459 198.897 63.8459H194.419C194.244 63.8459 194.075 63.9141 193.951 64.0355C193.827 64.1569 193.757 64.3216 193.757 64.4932C193.757 64.6649 193.827 64.8295 193.951 64.9509C194.075 65.0723 194.244 65.1405 194.419 65.1405Z" fill="#008C73" fill-opacity="0.39"/>
<path opacity="0.2" d="M194.419 65.1405H198.897C198.983 65.1405 199.069 65.1237 199.149 65.0911C199.229 65.0585 199.301 65.0107 199.362 64.9505C199.423 64.8903 199.471 64.8189 199.504 64.7404C199.536 64.6619 199.553 64.5779 199.552 64.4932C199.553 64.4086 199.536 64.3246 199.504 64.2461C199.471 64.1676 199.423 64.0962 199.362 64.036C199.301 63.9758 199.229 63.928 199.149 63.8954C199.069 63.8627 198.983 63.8459 198.897 63.8459H194.419C194.244 63.8459 194.075 63.9141 193.951 64.0355C193.827 64.1569 193.757 64.3216 193.757 64.4932C193.757 64.6649 193.827 64.8295 193.951 64.9509C194.075 65.0723 194.244 65.1405 194.419 65.1405Z" fill="white"/>
<path d="M189.425 253.064H230.2V251.03H189.425V253.064Z" fill="#263238"/>
<path opacity="0.1" d="M189.425 253.064H230.2V251.03H189.425V253.064Z" fill="white"/>
<path d="M194.646 56.0359L225.011 56.0359V54.0372H194.646V56.0359Z" fill="#263238"/>
<path opacity="0.1" d="M194.646 56.0359L225.011 56.0359V54.0372H194.646V56.0359Z" fill="white"/>
<path d="M223.438 59.3152H225.003V54.0445H223.438V59.3152Z" fill="#263238"/>
<path opacity="0.1" d="M223.438 59.3152H225.003V54.0445H223.438V59.3152Z" fill="white"/>
<path d="M194.646 59.3152H196.211V54.0445H194.646V59.3152Z" fill="#263238"/>
<path opacity="0.1" d="M194.646 59.3152H196.211V54.0445H194.646V59.3152Z" fill="white"/>
<path d="M193.902 183.671L193.618 183.45C196.477 179.222 197.967 174.249 197.892 169.182C197.892 164.743 197.083 160.938 196.232 156.905C195.164 152.448 194.513 147.905 194.288 143.333C194.048 136.491 195.016 131.035 196.13 124.726C196.749 121.226 197.389 117.613 197.892 113.381C198.709 106.11 198.184 98.7544 196.341 91.6648L196.683 91.5652C198.549 98.6971 199.081 106.099 198.256 113.416C197.753 117.684 197.105 121.283 196.486 124.797C195.373 131.092 194.412 136.526 194.652 143.333C194.877 147.886 195.525 152.41 196.588 156.848C197.447 160.895 198.256 164.715 198.256 169.196C198.329 174.339 196.811 179.384 193.902 183.671Z" fill="#008C73" fill-opacity="0.39"/>
<path d="M190.649 167.41H207.393C211.031 167.41 214.519 168.822 217.091 171.335C219.663 173.849 221.108 177.257 221.108 180.811V259.552H176.904V180.811C176.904 179.049 177.26 177.304 177.951 175.676C178.642 174.049 179.655 172.57 180.932 171.325C182.208 170.081 183.724 169.094 185.391 168.422C187.059 167.751 188.845 167.407 190.649 167.41Z" fill="#263238"/>
<path opacity="0.4" d="M190.649 167.41H207.393C211.031 167.41 214.519 168.822 217.091 171.335C219.663 173.849 221.108 177.257 221.108 180.811V259.552H176.904V180.811C176.904 179.049 177.26 177.304 177.951 175.676C178.642 174.049 179.655 172.57 180.932 171.325C182.208 170.081 183.724 169.094 185.391 168.422C187.059 167.751 188.845 167.407 190.649 167.41Z" fill="white"/>
<path opacity="0.5" d="M221.072 259.552H195.687V178.535C195.687 172.383 201.365 167.404 208.376 167.404C215.386 167.404 221.072 172.383 221.072 178.535V259.552Z" fill="white"/>
<path d="M125.791 146.676H166.377C169.944 146.68 173.363 148.068 175.883 150.534C178.403 153 179.818 156.343 179.816 159.828V206.34C179.816 207.134 179.493 207.896 178.918 208.457C178.343 209.019 177.564 209.334 176.751 209.334H115.395C114.582 209.334 113.803 209.019 113.228 208.457C112.653 207.896 112.33 207.134 112.33 206.34V159.828C112.329 158.101 112.677 156.39 113.353 154.794C114.029 153.198 115.02 151.748 116.27 150.526C117.521 149.305 119.005 148.336 120.638 147.675C122.272 147.015 124.023 146.675 125.791 146.676Z" fill="#263238"/>
<path opacity="0.4" d="M125.791 146.676H166.377C169.944 146.68 173.363 148.068 175.883 150.534C178.403 153 179.818 156.343 179.816 159.828V206.34C179.816 207.134 179.493 207.896 178.918 208.457C178.343 209.019 177.564 209.334 176.751 209.334H115.395C114.582 209.334 113.803 209.019 113.228 208.457C112.653 207.896 112.33 207.134 112.33 206.34V159.828C112.329 158.101 112.677 156.39 113.353 154.794C114.029 153.198 115.02 151.748 116.27 150.526C117.521 149.305 119.005 148.336 120.638 147.675C122.272 147.015 124.023 146.675 125.791 146.676Z" fill="white"/>
<path d="M199.865 222.763H126.33V259.552H199.865V222.763Z" fill="#263238"/>
<path opacity="0.4" d="M199.865 222.763H126.33V259.552H199.865V222.763Z" fill="white"/>
<path d="M197.506 203.11H133.748C126.048 203.11 119.807 209.209 119.807 216.732V218.702C119.807 226.225 126.048 232.323 133.748 232.323H197.506C205.206 232.323 211.447 226.225 211.447 218.702V216.732C211.447 209.209 205.206 203.11 197.506 203.11Z" fill="#263238"/>
<path opacity="0.6" d="M197.506 203.11H133.748C126.048 203.11 119.807 209.209 119.807 216.732V218.702C119.807 226.225 126.048 232.323 133.748 232.323H197.506C205.206 232.323 211.447 226.225 211.447 218.702V216.732C211.447 209.209 205.206 203.11 197.506 203.11Z" fill="white"/>
<path opacity="0.2" d="M144.646 203.11H133.959C126.259 203.11 120.018 209.209 120.018 216.732V218.702C120.018 226.225 126.259 232.323 133.959 232.323H144.646C152.345 232.323 158.587 226.225 158.587 218.702V216.732C158.587 209.209 152.345 203.11 144.646 203.11Z" fill="black"/>
<path d="M253.431 253.797L258.104 249.558L251.196 238.156L246.529 242.402L253.431 253.797Z" fill="#FF8B7B"/>
<path opacity="0.2" d="M246.529 242.402L251.203 238.163L255.149 244.678L250.329 248.683L246.529 242.402Z" fill="black"/>
<path d="M258.053 248.676L251.953 252.332C251.9 252.36 251.854 252.398 251.817 252.444C251.78 252.49 251.752 252.542 251.736 252.599C251.719 252.655 251.715 252.714 251.722 252.772C251.729 252.83 251.748 252.886 251.778 252.937L254.45 257.83C254.605 258.076 254.853 258.253 255.14 258.322C255.428 258.391 255.731 258.348 255.986 258.2C258.097 256.884 259.036 256.159 261.701 254.53C263.346 253.534 266.695 251.685 268.718 250.02C270.742 248.356 268.973 246.407 267.99 246.947C265.581 248.235 261.475 248.662 259.203 248.413C258.8 248.367 258.393 248.46 258.053 248.676Z" fill="#FF8B7B"/>
<path d="M273.155 247.722L255.021 258.803L255.449 259.472L273.584 248.392L273.155 247.722Z" fill="#263238"/>
<path d="M271.201 246.058C269.898 245.966 265.967 247.666 265.967 247.666L268.275 251.279L273.407 248.142C273.407 248.142 272.504 246.158 271.201 246.058Z" fill="#263238"/>
<path d="M176.904 175.846C176.904 175.846 216.456 187.938 225.862 193.487C235.268 199.035 257.37 241.428 257.37 241.428L246.53 248.199C246.53 248.199 222.404 210.65 218.932 208.296C215.459 205.941 171.67 196.204 171.67 196.204L176.904 175.846Z" fill="#263238"/>
<path opacity="0.2" d="M176.904 175.846C176.904 175.846 216.456 187.938 225.862 193.487C235.268 199.035 257.37 241.428 257.37 241.428L246.53 248.199C246.53 248.199 222.404 210.65 218.932 208.296C215.459 205.941 171.67 196.204 171.67 196.204L176.904 175.846Z" fill="black"/>
<path d="M247.199 250.191L259.502 243.619L257.296 238.049L243.938 245.518L247.199 250.191Z" fill="#263238"/>
<path opacity="0.2" d="M247.199 250.191L259.502 243.619L257.296 238.049L243.938 245.518L247.199 250.191Z" fill="white"/>
<path d="M230.259 253.555L235.785 250.44L231.381 237.345L225.862 240.46L230.259 253.555Z" fill="#FF8B7B"/>
<path opacity="0.2" d="M225.862 240.46L231.381 237.345L233.899 244.835L228.279 247.68L225.862 240.46Z" fill="black"/>
<path d="M235.937 249.572L229.152 251.798C229.095 251.815 229.042 251.842 228.996 251.878C228.95 251.915 228.912 251.959 228.883 252.01C228.855 252.061 228.837 252.117 228.831 252.175C228.824 252.232 228.83 252.29 228.847 252.346L230.303 257.702C230.394 257.979 230.594 258.209 230.859 258.342C231.123 258.475 231.431 258.501 231.715 258.413C234.066 257.595 235.151 257.09 238.129 256.08C239.956 255.469 243.632 254.437 245.998 253.235C248.364 252.033 247.068 249.764 245.955 250.077C243.319 250.788 239.213 250.326 237.066 249.579C236.7 249.459 236.304 249.456 235.937 249.572Z" fill="#FF8B7B"/>
<path d="M250.936 251.617L230.819 258.717L231.094 259.459L251.21 252.36L250.936 251.617Z" fill="#263238"/>
<path d="M249.383 249.586C248.131 249.223 243.916 250.077 243.916 250.077L245.372 254.082L251.058 252.076C251.058 252.076 250.635 249.949 249.383 249.586Z" fill="#263238"/>
<path d="M234.358 239.707C234.358 239.707 221.123 192.875 218.932 190.186C215.35 185.79 181.076 181.146 181.076 181.146L172.122 166.002L138.925 173.115C138.925 173.115 142.143 192.654 146.103 198.38C150.063 204.106 202.232 203.146 205.704 204.263C209.177 205.379 222.274 241.926 222.274 241.926L234.358 239.707Z" fill="#263238"/>
<path d="M222.804 246.123L236.105 241.784L234.947 235.923L220.445 240.959L222.804 246.123Z" fill="#263238"/>
<path opacity="0.2" d="M222.804 246.123L236.105 241.784L234.947 235.923L220.445 240.959L222.804 246.123Z" fill="white"/>
<path opacity="0.2" d="M181.083 181.117L169.398 179.83L179.838 179.005L181.083 181.117Z" fill="black"/>
<path d="M167.272 139.585C171.495 147.736 175.652 156.414 179.532 164.722L176.838 163.143H182.662C188.29 163.214 194.601 163.335 200.222 163.633C200.628 163.656 201.011 163.827 201.296 164.112C201.58 164.398 201.744 164.776 201.757 165.174C201.77 165.572 201.63 165.96 201.365 166.262C201.099 166.564 200.728 166.758 200.323 166.806C192.811 167.674 184.562 168.292 177.027 168.783C176.467 168.819 175.91 168.687 175.428 168.405C174.947 168.123 174.565 167.704 174.334 167.204C172.106 163.1 169.886 158.996 167.738 154.856C165.867 151.214 163.145 146.036 161.39 142.394C161.035 141.636 160.995 140.772 161.281 139.986C161.566 139.2 162.153 138.553 162.918 138.183C163.683 137.813 164.566 137.749 165.379 138.004C166.191 138.259 166.871 138.813 167.272 139.549V139.585Z" fill="#FF8B7B"/>
<path d="M161.107 132.849L160.925 149.301C160.925 149.301 162.541 150.937 163.968 152.537C165.613 154.387 168.685 160.689 169.399 162.495L178.251 157.274C174.313 149.756 167.914 135.473 161.107 132.849Z" fill="#008C73" fill-opacity="0.39"/>
<path opacity="0.2" d="M163.713 152.331C164.441 152.929 167.528 156.805 167.528 156.805C167.528 156.805 169.086 161.251 170.01 162.14C168.976 154.237 164.856 143.49 164.856 143.49C164.856 143.49 163.291 148.59 163.713 152.331Z" fill="black"/>
<path d="M199.691 163.363L206.308 164.999L201.736 170.654C201.736 170.654 196.16 169.231 196.932 165.846L199.691 163.363Z" fill="#FF8B7B"/>
<path d="M208.558 168.983L207.036 171.579C206.906 171.798 206.733 171.989 206.526 172.141C206.32 172.294 206.084 172.404 205.832 172.466C205.581 172.527 205.32 172.539 205.064 172.5C204.808 172.462 204.563 172.373 204.343 172.24L201.736 170.654L206.308 164.999L208.208 166.657C208.528 166.948 208.736 167.337 208.8 167.76C208.863 168.182 208.778 168.613 208.558 168.983Z" fill="#FF8B7B"/>
<path d="M175.871 159.16L173.606 161.059L175.259 162.766L177.232 161.059L175.871 159.16Z" fill="#008C73" fill-opacity="0.39"/>
<path opacity="0.6" d="M175.871 159.16L173.606 161.059L175.259 162.766L177.232 161.059L175.871 159.16Z" fill="white"/>
<path d="M181.774 165.917C181.585 165.917 181.381 165.917 181.155 165.917C180.192 165.563 179.299 165.045 178.52 164.387C178.482 164.357 178.458 164.314 178.451 164.266C178.444 164.219 178.456 164.171 178.484 164.131C178.518 164.099 178.563 164.08 178.611 164.08C178.659 164.08 178.704 164.099 178.738 164.131C179.476 164.755 180.319 165.251 181.228 165.597C182.437 165.71 182.983 165.511 183.521 164.743C183.609 164.629 183.703 164.487 183.805 164.33C184.286 163.619 185.014 162.474 186.113 162.374C186.357 162.37 186.595 162.451 186.784 162.602C186.974 162.753 187.102 162.965 187.147 163.2C187.149 163.223 187.146 163.246 187.139 163.269C187.131 163.291 187.12 163.312 187.104 163.33C187.088 163.347 187.069 163.362 187.048 163.373C187.027 163.383 187.003 163.39 186.979 163.392C186.93 163.394 186.882 163.377 186.846 163.345C186.809 163.313 186.787 163.269 186.783 163.221C186.745 163.079 186.661 162.954 186.542 162.865C186.423 162.776 186.277 162.729 186.128 162.73C185.225 162.808 184.555 163.84 184.111 164.523C184.002 164.686 183.907 164.835 183.82 164.949C183.603 165.278 183.297 165.543 182.936 165.713C182.575 165.884 182.173 165.954 181.774 165.917Z" fill="#008C73" fill-opacity="0.39"/>
<path d="M177.433 162.56L176.911 163.035L178.366 164.559L178.888 164.083L177.433 162.56Z" fill="#263238"/>
<path opacity="0.1" d="M177.433 162.56L176.911 163.035L178.366 164.559L178.888 164.083L177.433 162.56Z" fill="white"/>
<path d="M176.431 161.756L176.161 162.005L176.598 162.467L177.042 162.922L177.311 162.673L176.875 162.218L176.431 161.756Z" fill="#263238"/>
<path opacity="0.5" d="M176.431 161.756L176.161 162.005L176.598 162.467L177.042 162.922L177.311 162.673L176.875 162.218L176.431 161.756Z" fill="white"/>
<path d="M175.419 160.959L176.234 161.941L176.365 161.82L175.419 160.959Z" fill="#008C73" fill-opacity="0.39"/>
<path opacity="0.6" d="M175.419 160.959L176.234 161.941L176.365 161.82L175.419 160.959Z" fill="white"/>
<path d="M131.899 151.065C132.365 154.067 133.355 157.388 133.981 161.201C135.481 170.412 137.941 175.832 140.533 181.978L177.836 175.846C173.992 168.577 168.634 161.108 166.85 154.778C166.85 154.778 165.329 144.891 163.938 139.186C163.057 135.63 162.737 132.073 158.172 132.073C151.395 132.002 143.168 131.149 136.332 132.706C132.692 133.532 130.363 136.142 130.618 139.208C130.814 141.975 131.091 145.965 131.899 151.065Z" fill="#008C73" fill-opacity="0.39"/>
<path opacity="0.2" d="M132.867 155.781L132.176 152.616L133.719 149.863L132.867 155.781Z" fill="black"/>
<path d="M144.035 120.536C143.977 124.996 143.678 130.21 140.548 133.147C142.259 135.993 145.877 138.283 150.689 137.877C155.981 137.429 154.656 133.802 153.514 131.931C150.973 129.996 151.708 127.365 152.058 125.529L144.035 120.536Z" fill="#FF8B7B"/>
<path opacity="0.2" d="M144.756 123.296C144.756 123.011 144.901 121.76 144.916 121.482L152.021 125.529C151.696 126.782 151.62 128.083 151.796 129.363C149.102 128.787 144.785 125.992 144.756 123.296Z" fill="black"/>
<path d="M141.888 112.534C142.616 118.374 142.79 121.831 146.023 124.626C150.893 128.823 158.122 125.6 159.17 119.647C160.102 114.284 158.705 105.634 152.662 103.728C151.327 103.307 149.904 103.223 148.527 103.485C147.15 103.747 145.863 104.345 144.787 105.225C143.711 106.104 142.88 107.236 142.373 108.514C141.866 109.793 141.699 111.176 141.888 112.534Z" fill="#FF8B7B"/>
<path d="M151.424 113.708C151.46 114.184 151.744 114.554 152.064 114.533C152.385 114.511 152.618 114.099 152.581 113.622C152.545 113.146 152.268 112.776 151.948 112.797C151.628 112.819 151.424 113.231 151.424 113.708Z" fill="#263238"/>
<path d="M157.568 113.452C157.568 113.928 157.881 114.291 158.202 114.27C158.522 114.248 158.755 113.843 158.726 113.366C158.697 112.89 158.405 112.52 158.085 112.541C157.765 112.563 157.532 112.968 157.568 113.452Z" fill="#263238"/>
<path d="M155.457 113.139C156.226 114.511 157.187 115.772 158.311 116.887C158.007 117.158 157.647 117.362 157.255 117.485C156.863 117.608 156.448 117.647 156.039 117.598L155.457 113.139Z" fill="#FF5652"/>
<path d="M159.433 111.019C159.385 111.026 159.337 111.023 159.291 111.008C159.245 110.993 159.204 110.967 159.171 110.934C158.928 110.672 158.625 110.471 158.287 110.348C157.949 110.224 157.585 110.181 157.227 110.222C157.153 110.235 157.076 110.219 157.014 110.178C156.951 110.137 156.908 110.074 156.892 110.002C156.879 109.927 156.896 109.851 156.939 109.789C156.983 109.726 157.049 109.683 157.125 109.668C157.576 109.608 158.036 109.656 158.464 109.807C158.892 109.958 159.277 110.208 159.586 110.535C159.639 110.588 159.669 110.66 159.669 110.734C159.669 110.809 159.639 110.88 159.586 110.934C159.544 110.975 159.491 111.005 159.433 111.019Z" fill="#263238"/>
<path d="M149.895 111.019C149.943 111.027 149.991 111.023 150.037 111.008C150.083 110.993 150.124 110.968 150.157 110.934C150.4 110.672 150.703 110.471 151.041 110.348C151.379 110.224 151.743 110.181 152.101 110.222C152.175 110.235 152.252 110.219 152.314 110.178C152.376 110.137 152.42 110.074 152.436 110.002C152.449 109.928 152.432 109.851 152.388 109.789C152.345 109.727 152.279 109.683 152.203 109.668C151.752 109.609 151.293 109.657 150.864 109.808C150.436 109.959 150.051 110.209 149.742 110.535C149.689 110.589 149.659 110.66 149.659 110.735C149.659 110.809 149.689 110.881 149.742 110.934C149.784 110.976 149.837 111.005 149.895 111.019Z" fill="#263238"/>
<path opacity="0.2" d="M153.44 114.633C152.933 115.191 152.372 115.701 151.766 116.155C150.99 116.706 150.061 117.016 149.102 117.044C149.102 117.044 151.519 117.279 152.297 116.56C152.821 116.009 153.212 115.351 153.44 114.633Z" fill="black"/>
<path opacity="0.2" d="M157.459 114.633C157.695 115.161 158.028 115.644 158.442 116.055C159.25 116.937 159.425 116.951 159.425 116.951C159.172 116.948 158.924 116.886 158.701 116.769C158.478 116.653 158.287 116.486 158.143 116.283C157.791 115.79 157.557 115.226 157.459 114.633Z" fill="black"/>
<path d="M157.678 108.288C158.064 107.911 158.311 107.434 158.056 107.007C157.109 105.684 155.854 104.598 154.396 103.838C152.937 103.078 151.315 102.665 149.663 102.633C148.011 102.671 146.402 103.157 145.017 104.036C143.631 104.915 142.522 106.153 141.815 107.612C140.643 110.322 141.567 113.046 141.815 116.702C142.055 116.354 143.38 116.901 143.424 116.489C143.751 113.452 145.455 110.713 147.064 109.632C149.13 108.307 151.531 107.569 154.002 107.498C155.458 107.484 156.782 107.555 157.678 108.288Z" fill="#008C73" fill-opacity="0.39"/>
<path d="M133.879 117.911C133.879 117.911 138.385 115.614 139.572 115.671C140.759 115.728 142.04 116.631 142.003 117.613C141.967 118.594 140.445 119.54 139.594 119.604C138.742 119.668 133.879 117.911 133.879 117.911Z" fill="#008C73" fill-opacity="0.39"/>
<path d="M137.469 125.06C137.469 125.06 139.274 120.415 140.206 119.683C141.138 118.95 142.703 118.808 143.336 119.562C143.97 120.316 143.489 122.016 142.892 122.613C142.295 123.211 137.469 125.06 137.469 125.06Z" fill="#008C73" fill-opacity="0.39"/>
<path d="M140.242 118.623C140.643 119.24 141.166 119.773 141.779 120.192C142.393 120.61 143.085 120.906 143.816 121.063C145.782 121.468 146.648 119.718 146 117.968C145.425 116.396 143.707 114.298 141.785 114.675C141.367 114.766 140.978 114.957 140.654 115.231C140.329 115.504 140.079 115.852 139.926 116.243C139.774 116.634 139.722 117.057 139.777 117.472C139.832 117.887 139.992 118.283 140.242 118.623Z" fill="#FF8B7B"/>
<path d="M155.981 120.209C156.226 120.206 156.47 120.177 156.709 120.124C156.725 120.121 156.74 120.114 156.754 120.105C156.768 120.095 156.779 120.083 156.787 120.069C156.795 120.054 156.8 120.039 156.802 120.022C156.804 120.006 156.801 119.99 156.796 119.974C156.787 119.941 156.766 119.912 156.736 119.894C156.706 119.875 156.67 119.868 156.636 119.875C156.076 119.99 155.497 119.98 154.941 119.847C154.385 119.714 153.867 119.461 153.425 119.107C153.4 119.083 153.366 119.07 153.331 119.07C153.295 119.07 153.262 119.083 153.236 119.107C153.212 119.131 153.199 119.162 153.199 119.196C153.199 119.229 153.212 119.261 153.236 119.284C153.999 119.919 154.979 120.249 155.981 120.209Z" fill="#263238"/>
<path d="M142.069 166.664L148.461 168.997L143.292 174.132C143.292 174.132 137.905 172.112 139.048 168.84L142.069 166.664Z" fill="#FF8B7B"/>
<path d="M150.252 173.201L148.446 175.612C148.295 175.817 148.102 175.99 147.881 176.12C147.659 176.251 147.412 176.336 147.156 176.371C146.9 176.407 146.639 176.391 146.389 176.325C146.139 176.259 145.905 176.145 145.702 175.989L143.292 174.132L148.461 168.997L150.135 170.846C150.426 171.167 150.595 171.575 150.617 172.003C150.638 172.431 150.509 172.854 150.252 173.201Z" fill="#FF8B7B"/>
<path d="M134.513 144.877C130.742 152.701 126.163 160.71 122.261 168.435L119.472 164.309C123.193 164.416 126.752 164.693 130.465 165.02C134.178 165.348 137.709 165.789 141.312 166.351C141.706 166.418 142.06 166.623 142.31 166.928C142.559 167.233 142.686 167.616 142.666 168.006C142.646 168.396 142.482 168.765 142.203 169.044C141.924 169.324 141.55 169.494 141.152 169.523C135.911 169.822 130.13 169.928 124.867 170.042C123.076 170.092 121.271 170.113 119.531 170.192C119.037 170.208 118.547 170.104 118.105 169.889C117.663 169.674 117.282 169.355 116.998 168.96C116.714 168.566 116.536 168.108 116.478 167.629C116.421 167.149 116.487 166.664 116.67 166.215C120.31 158.071 124.59 150.033 128.609 142.088C128.796 141.71 129.057 141.37 129.378 141.09C129.699 140.81 130.074 140.595 130.48 140.456C130.886 140.317 131.316 140.258 131.746 140.282C132.176 140.306 132.596 140.412 132.984 140.595C133.372 140.777 133.719 141.033 134.005 141.346C134.292 141.66 134.513 142.026 134.655 142.423C134.797 142.82 134.857 143.24 134.833 143.66C134.809 144.08 134.7 144.491 134.513 144.869V144.877Z" fill="#FF8B7B"/>
<path d="M134.068 133.489C136.077 139.819 136.005 145.318 133.267 150.823C132.044 153.028 129.336 157.829 127.138 161.265L116.334 160.426C120.527 150.567 129.198 134.819 134.068 133.489Z" fill="#008C73" fill-opacity="0.39"/>
<path d="M144.238 259.552H100.354V180.811C100.354 177.257 101.8 173.849 104.372 171.336C106.944 168.823 110.432 167.411 114.07 167.411H130.523C140.176 167.069 145.083 173.812 144.238 180.811V259.552Z" fill="#263238"/>
<path opacity="0.6" d="M144.238 259.552H100.354V180.811C100.354 177.257 101.8 173.849 104.372 171.335C106.944 168.822 110.432 167.41 114.07 167.41H130.523C140.351 167.304 144.573 173.143 144.238 180.811V259.552Z" fill="white"/>
<path opacity="0.4" d="M144.239 259.552H118.999V178.535C118.999 172.383 124.648 167.404 131.615 167.404C138.589 167.404 144.239 172.383 144.239 178.535V259.552Z" fill="white"/>
<path d="M78.0274 237.501C78.0274 237.501 77.0155 230.268 72.2835 229.478C67.5515 228.689 68.9711 225.21 67.7408 223.83C66.5105 222.45 63.2854 226.469 66.0445 230.346C68.8037 234.222 66.5469 232.999 67.7408 236.598C68.9347 240.197 78.4642 243.505 78.0274 237.501Z" fill="#263238"/>
<path opacity="0.2" d="M78.0274 237.501C78.0274 237.501 77.0155 230.268 72.2835 229.478C67.5515 228.689 68.9711 225.21 67.7408 223.83C66.5105 222.45 63.2854 226.469 66.0445 230.346C68.8037 234.222 66.5469 232.999 67.7408 236.598C68.9347 240.197 78.4642 243.505 78.0274 237.501Z" fill="white"/>
<path d="M77.8306 242.552C77.768 242.552 77.7066 242.535 77.6537 242.502C77.6008 242.469 77.5586 242.422 77.5321 242.367C77.5321 242.296 73.8921 234.77 75.7849 222.778C76.3978 219.347 77.3737 215.989 78.6969 212.756C80.9901 206.653 82.7956 201.83 78.6969 193.024C77.3865 190.236 76.047 187.633 74.7512 185.122C69.8881 175.697 66.0152 168.25 68.9272 160.703C68.9583 160.624 69.0197 160.559 69.0985 160.523C69.1773 160.488 69.2673 160.483 69.3494 160.511C69.3902 160.525 69.4277 160.547 69.4596 160.576C69.4916 160.604 69.5175 160.639 69.5358 160.677C69.5541 160.715 69.5644 160.757 69.5661 160.799C69.5679 160.842 69.561 160.884 69.546 160.923C66.7869 168.207 70.5725 175.548 75.37 184.837C76.6658 187.355 78.0053 189.959 79.323 192.754C83.5745 201.802 81.6308 206.98 79.3813 212.976C78.0542 216.166 77.0781 219.485 76.4693 222.877C74.6056 234.656 78.1291 242.018 78.1655 242.082C78.2034 242.16 78.2086 242.249 78.18 242.33C78.1514 242.411 78.0913 242.478 78.0126 242.516C77.9563 242.544 77.8935 242.556 77.8306 242.552Z" fill="#263238"/>
<path d="M75.1003 240.759C75.1003 240.759 72.0355 236.25 76.4544 233.931C80.8734 231.612 81.7615 233.475 84.4624 231.797C87.1633 230.118 89.2672 226.106 89.7331 228.674C90.1991 231.242 87.0468 232.736 88.1607 233.916C89.2745 235.097 80.7569 242.786 75.1003 240.759Z" fill="#263238"/>
<path d="M67.8785 164.551C67.8785 164.551 64.8937 155.695 71.6786 155.51C78.4636 155.325 70.9797 163.598 67.8785 164.551Z" fill="#263238"/>
<path d="M73.7676 171.358C73.7676 171.358 75.7914 163.306 80.6035 165.006C85.4156 166.706 78.5651 171.507 73.7676 171.358Z" fill="#263238"/>
<path d="M65.6 172.062C65.6 172.062 66.328 165.661 61.232 165.504C56.136 165.348 58.3782 171.024 65.6 172.062Z" fill="#263238"/>
<path d="M68.9992 185.172C68.9992 185.172 62.1414 179.197 59.6735 183.642C57.2056 188.088 64.8496 189.013 68.9992 185.172Z" fill="#263238"/>
<path d="M81.1289 184.112C81.1289 184.112 82.4175 174.189 87.9575 177.305C93.4976 180.42 85.9555 185.1 81.1289 184.112Z" fill="#263238"/>
<path d="M86.006 198.316C86.006 198.316 81.9146 188.294 89.5149 189.418C97.1152 190.542 91.3713 195.883 86.006 198.316Z" fill="#263238"/>
<path d="M74.3427 201.894C74.3427 201.894 67.929 194.504 63.0223 196.844C58.1156 199.184 62.1269 206.532 74.3427 201.894Z" fill="#263238"/>
<path d="M80.167 218.261C80.167 218.261 85.6343 206.397 90.4973 210.394C95.3603 214.391 87.396 220.366 80.167 218.261Z" fill="#263238"/>
<path d="M72.2252 217.564C72.2252 217.564 73.6812 208.359 68.2576 209.099C62.834 209.839 64.2681 215.472 72.2252 217.564Z" fill="#263238"/>
<g opacity="0.2">
<path d="M67.8785 164.551C67.8785 164.551 64.8937 155.695 71.6786 155.51C78.4636 155.325 70.9797 163.598 67.8785 164.551Z" fill="white"/>
<path d="M73.7676 171.358C73.7676 171.358 75.7914 163.306 80.6035 165.006C85.4156 166.706 78.5651 171.507 73.7676 171.358Z" fill="white"/>
<path d="M65.6 172.062C65.6 172.062 66.328 165.661 61.232 165.504C56.136 165.348 58.3782 171.024 65.6 172.062Z" fill="white"/>
<path d="M68.9992 185.172C68.9992 185.172 62.1414 179.197 59.6735 183.642C57.2056 188.088 64.8496 189.013 68.9992 185.172Z" fill="white"/>
<path d="M81.1289 184.112C81.1289 184.112 82.4175 174.189 87.9575 177.305C93.4976 180.42 85.9555 185.1 81.1289 184.112Z" fill="white"/>
<path d="M86.006 198.316C86.006 198.316 81.9146 188.294 89.5149 189.418C97.1152 190.542 91.3713 195.883 86.006 198.316Z" fill="white"/>
<path d="M74.3427 201.894C74.3427 201.894 67.929 194.504 63.0223 196.844C58.1156 199.184 62.1269 206.532 74.3427 201.894Z" fill="white"/>
<path d="M80.167 218.261C80.167 218.261 85.6343 206.397 90.4973 210.394C95.3603 214.391 87.396 220.366 80.167 218.261Z" fill="white"/>
<path d="M72.2252 217.564C72.2252 217.564 73.6812 208.359 68.2576 209.099C62.834 209.839 64.2681 215.472 72.2252 217.564Z" fill="white"/>
</g>
<path d="M70.8128 176.693C70.7563 176.694 70.7007 176.679 70.6527 176.65C66.6341 174.459 63.744 170.305 63.6275 170.135C63.6028 170.1 63.5854 170.06 63.5764 170.019C63.5674 169.977 63.567 169.934 63.5751 169.893C63.5833 169.851 63.5998 169.811 63.6238 169.776C63.6478 169.74 63.6787 169.71 63.7148 169.686C63.7876 169.639 63.8762 169.622 63.9619 169.638C64.0475 169.654 64.1234 169.702 64.1735 169.772C65.9204 172.212 68.1296 174.303 70.6818 175.932C71.2933 174.822 73.4992 170.988 75.341 169.914C75.4153 169.87 75.5046 169.856 75.5893 169.876C75.6312 169.886 75.6707 169.904 75.7055 169.929C75.7404 169.953 75.7699 169.985 75.7924 170.021C75.8148 170.057 75.8298 170.097 75.8365 170.138C75.8432 170.18 75.8414 170.222 75.8312 170.263C75.8211 170.304 75.8028 170.343 75.7774 170.377C75.752 170.411 75.72 170.44 75.6832 170.462C73.7248 171.607 71.1259 176.472 71.104 176.522C71.0836 176.559 71.0556 176.593 71.0219 176.62C70.9881 176.646 70.9492 176.666 70.9075 176.678C70.8773 176.69 70.845 176.694 70.8128 176.693Z" fill="#263238"/>
<path d="M77.0295 189.005C76.9584 189.007 76.8889 188.984 76.833 188.941C71.1109 184.716 63.8163 184.901 63.729 184.901C63.6419 184.901 63.558 184.869 63.4944 184.811C63.4309 184.753 63.3924 184.673 63.3868 184.588C63.3848 184.503 63.4172 184.42 63.4771 184.357C63.537 184.295 63.6196 184.258 63.7071 184.254C63.7872 184.254 71.0672 184.076 76.9203 188.216C77.6483 187.028 80.6186 182.71 84.3896 180.541C84.4649 180.498 84.5548 180.485 84.6394 180.507C84.7241 180.528 84.7966 180.581 84.841 180.655C84.8854 180.728 84.8981 180.816 84.8762 180.899C84.8544 180.982 84.7998 181.052 84.7245 181.096C80.5676 183.486 77.328 188.792 77.2989 188.849C77.2486 188.924 77.1703 188.978 77.0805 188.998L77.0295 189.005Z" fill="#263238"/>
<path d="M80.9902 205.265C80.9316 205.266 80.8738 205.251 80.8228 205.223C80.7427 205.18 72.3926 200.493 66.3647 200.372C66.2772 200.37 66.1938 200.335 66.1326 200.273C66.0714 200.212 66.0371 200.13 66.0371 200.045C66.0371 200.002 66.0458 199.96 66.0628 199.921C66.0798 199.882 66.1047 199.847 66.136 199.818C66.1673 199.789 66.2044 199.766 66.2449 199.751C66.2855 199.736 66.3287 199.73 66.372 199.732C72.1232 199.845 79.6143 203.822 80.932 204.561C84.8049 201.368 87.8844 193.536 87.9135 193.458C87.9272 193.417 87.9494 193.379 87.9786 193.346C88.0079 193.313 88.0436 193.287 88.0837 193.268C88.1237 193.249 88.1672 193.239 88.2116 193.237C88.2559 193.235 88.3002 193.242 88.3417 193.258C88.3832 193.273 88.421 193.297 88.4529 193.327C88.4848 193.357 88.5101 193.393 88.5272 193.433C88.5444 193.473 88.553 193.516 88.5527 193.56C88.5523 193.603 88.5429 193.646 88.525 193.686C88.394 194.02 85.2636 201.993 81.1722 205.194C81.1212 205.237 81.0572 205.262 80.9902 205.265Z" fill="#263238"/>
<path d="M76.1564 222.088C76.0978 222.087 76.0403 222.072 75.9889 222.045C72.8367 220.281 68.7599 212.563 68.5925 212.236C68.5793 212.167 68.5897 212.096 68.6219 212.034C68.6542 211.971 68.7066 211.92 68.771 211.89C68.8355 211.859 68.9085 211.85 68.9788 211.864C69.0491 211.877 69.1129 211.913 69.1603 211.966C69.204 212.044 73.0988 219.434 76.0617 221.369C78.4736 218.617 81.6653 216.625 85.2345 215.643C85.3176 215.619 85.4071 215.628 85.4835 215.668C85.5599 215.708 85.617 215.776 85.6422 215.857C85.6674 215.939 85.6586 216.027 85.6178 216.103C85.5769 216.179 85.5073 216.236 85.4238 216.262C81.9124 217.219 78.7802 219.193 76.4403 221.924C76.4109 221.972 76.3695 222.013 76.3198 222.041C76.2702 222.07 76.214 222.086 76.1564 222.088Z" fill="#263238"/>
<path d="M75.5666 239.706C75.5666 239.706 72.9458 235.624 69.9756 235.047C67.0054 234.471 65.7314 231.128 64.6394 233.134C63.5474 235.14 66.5613 241.769 75.5666 239.706Z" fill="#263238"/>
<path d="M61.9454 255.71H90.6067L92.5286 238.426H60.0234L61.9454 255.71Z" fill="#008C73" fill-opacity="0.39"/>
<path d="M59.3533 241.705H93.1981L93.6276 238.042H58.9238L59.3533 241.705Z" fill="#008C73" fill-opacity="0.39"/>
<path opacity="0.3" d="M59.3533 241.705H93.1981L93.6276 238.042H58.9238L59.3533 241.705Z" fill="white"/>
</svg>
