<svg width="267" height="291" viewBox="0 0 267 291" fill="none" xmlns="http://www.w3.org/2000/svg">
<path d="M264.478 153.611H261.993V153.123C261.991 151.793 261.53 150.518 260.709 149.577C259.888 148.636 258.776 148.107 257.615 148.105H255.932C254.771 148.105 253.657 148.634 252.835 149.575C252.013 150.515 251.55 151.792 251.548 153.123V153.611H249.069C248.738 153.61 248.41 153.684 248.103 153.829C247.797 153.974 247.519 154.187 247.285 154.455C247.05 154.724 246.865 155.043 246.738 155.394C246.612 155.745 246.547 156.121 246.548 156.501V169.667C246.548 170.434 246.813 171.169 247.286 171.711C247.759 172.253 248.4 172.557 249.069 172.557H264.478C265.146 172.555 265.787 172.25 266.259 171.709C266.732 171.167 266.998 170.433 266.999 169.667V156.501C266.999 155.734 266.734 154.999 266.261 154.457C265.788 153.915 265.147 153.611 264.478 153.611ZM252.746 153.123C252.748 152.156 253.084 151.229 253.682 150.545C254.279 149.862 255.088 149.478 255.932 149.478H257.615C258.458 149.478 259.267 149.862 259.864 150.546C260.46 151.229 260.795 152.157 260.795 153.123V153.611H252.746V153.123Z" fill="#263238" fill-opacity="0.88"/>
<path d="M261.364 161.738H258.189V158.107H255.351V161.738H252.177V164.999H255.351V168.63H258.189V164.999H261.364V161.738Z" fill="white"/>
<path d="M259.567 75.1474C259.074 75.1474 258.585 75.0359 258.129 74.8191C257.673 74.6024 257.259 74.2847 256.91 73.8843C256.561 73.4839 256.285 73.0086 256.097 72.4856C255.908 71.9627 255.812 71.4022 255.813 70.8364V59.2214C255.812 58.6556 255.908 58.0952 256.097 57.5722C256.285 57.0492 256.561 56.5739 256.91 56.1735C257.259 55.7731 257.673 55.4554 258.129 55.2387C258.585 55.022 259.074 54.9104 259.567 54.9104C260.061 54.9104 260.55 55.022 261.006 55.2387C261.462 55.4554 261.876 55.7731 262.225 56.1735C262.573 56.5739 262.85 57.0492 263.038 57.5722C263.227 58.0952 263.323 58.6556 263.322 59.2214V70.8158C263.326 71.3834 263.231 71.946 263.043 72.4714C262.856 72.9968 262.58 73.4745 262.231 73.8771C261.882 74.2797 261.467 74.5992 261.01 74.8172C260.553 75.0352 260.063 75.1474 259.567 75.1474Z" fill="white" stroke="#263238" stroke-opacity="0.88" stroke-linecap="round" stroke-linejoin="round"/>
<path d="M259.567 75.1475C259.074 75.1475 258.585 75.036 258.129 74.8192C257.673 74.6025 257.259 74.2849 256.91 73.8845C256.561 73.4841 256.285 73.0088 256.097 72.4858C255.908 71.9628 255.812 71.4023 255.813 70.8365V65.0359H263.322V70.8365C263.323 71.4023 263.227 71.9628 263.038 72.4858C262.85 73.0088 262.573 73.4841 262.225 73.8845C261.876 74.2849 261.462 74.6025 261.006 74.8192C260.55 75.036 260.061 75.1475 259.567 75.1475Z" fill="#263238" fill-opacity="0.88" stroke="#263238" stroke-opacity="0.88" stroke-linecap="round" stroke-linejoin="round"/>
<path d="M240.679 58.0409C240.37 57.5989 240.141 57.0913 240.004 56.5472C239.867 56.0032 239.825 55.4335 239.88 54.8709C239.936 54.3082 240.088 53.7637 240.328 53.2687C240.568 52.7736 240.891 52.3378 241.278 51.9863L249.165 44.7234C249.946 44.0118 250.942 43.6844 251.933 43.8131C252.924 43.9418 253.831 44.5161 254.453 45.4099C255.074 46.3041 255.359 47.444 255.247 48.5793C255.135 49.7146 254.634 50.7523 253.854 51.4645L245.961 58.7205C245.575 59.0739 245.133 59.3367 244.659 59.4939C244.184 59.651 243.688 59.6994 243.197 59.6363C242.706 59.5732 242.231 59.3998 241.799 59.126C241.367 58.8522 240.987 58.4835 240.679 58.0409Z" fill="white" stroke="#263238" stroke-opacity="0.88" stroke-linecap="round" stroke-linejoin="round"/>
<path d="M240.679 58.0405C240.37 57.5985 240.141 57.0909 240.004 56.5469C239.867 56.0029 239.825 55.4332 239.88 54.8705C239.936 54.3079 240.088 53.7634 240.328 53.2683C240.568 52.7733 240.891 52.3375 241.278 51.9859L245.224 48.3545L249.926 55.075L245.979 58.6995C245.594 59.0573 245.151 59.3242 244.676 59.4848C244.2 59.6454 243.702 59.6965 243.209 59.6353C242.717 59.574 242.239 59.4015 241.805 59.1278C241.371 58.8541 240.988 58.4846 240.679 58.0405Z" fill="#263238" fill-opacity="0.88" stroke="#263238" stroke-opacity="0.88" stroke-linecap="round" stroke-linejoin="round"/>
<path d="M203.124 26.436C202.655 26.4363 202.199 26.6043 201.818 26.9165L193.092 19.1526C193.52 18.2454 193.721 17.2203 193.672 16.1906C193.623 15.1609 193.327 14.1667 192.817 13.3176L198.147 5.50567C198.598 5.70504 199.093 5.73366 199.559 5.58732C200.025 5.44098 200.439 5.12738 200.738 4.69244C201.038 4.25749 201.208 3.72403 201.224 3.17018C201.24 2.61633 201.101 2.07118 200.827 1.61453C200.553 1.15789 200.159 0.813745 199.702 0.632485C199.245 0.451225 198.749 0.442371 198.288 0.60722C197.826 0.772069 197.423 1.10196 197.137 1.5486C196.851 1.99524 196.697 2.53515 196.698 3.0893C196.695 3.62337 196.839 4.14474 197.111 4.57894L191.925 12.1918C191.229 11.5206 190.384 11.0847 189.485 10.9331C188.585 10.7815 187.667 10.9203 186.832 11.3337C185.997 11.7472 185.28 12.419 184.76 13.2739C184.24 14.1287 183.938 15.1328 183.888 16.1733H177.827C177.761 15.5567 177.504 14.9877 177.103 14.5699C176.702 14.152 176.183 13.913 175.641 13.8963C175.099 13.8796 174.57 14.0863 174.15 14.4788C173.73 14.8713 173.447 15.4236 173.351 16.0353C173.256 16.647 173.356 17.2774 173.632 17.8121C173.908 18.3467 174.343 18.75 174.856 18.9488C175.37 19.1475 175.928 19.1284 176.431 18.895C176.933 18.6615 177.346 18.2293 177.593 17.6767H184.001C184.189 18.6748 184.61 19.5955 185.22 20.3396C185.83 21.0837 186.605 21.6232 187.463 21.8999C188.32 22.1767 189.227 22.1803 190.086 21.9103C190.945 21.6403 191.723 21.107 192.338 20.3677L201.015 28.1041C200.844 28.6202 200.822 29.1854 200.951 29.7173C201.08 30.2492 201.354 30.7199 201.733 31.0605C202.112 31.4012 202.576 31.594 203.057 31.6108C203.539 31.6275 204.012 31.4674 204.408 31.1538C204.805 30.8401 205.103 30.3894 205.26 29.8675C205.417 29.3455 205.425 28.7797 205.281 28.2527C205.137 27.7257 204.851 27.2652 204.462 26.9383C204.074 26.6115 203.605 26.4355 203.124 26.436Z" fill="#263238" fill-opacity="0.88"/>
<path d="M25.8736 75.2297C25.1482 75.2279 24.453 74.8968 23.9401 74.3088C23.4272 73.7209 23.1383 72.924 23.1367 72.0925V46.0068H28.6104V72.0925C28.6104 72.9246 28.3221 73.7225 27.8088 74.3108C27.2956 74.8992 26.5994 75.2297 25.8736 75.2297Z" fill="white" stroke="#263238" stroke-opacity="0.88" stroke-linecap="round" stroke-linejoin="round"/>
<path d="M25.8736 75.2302C25.1482 75.2283 24.453 74.8972 23.9401 74.3093C23.4272 73.7214 23.1383 72.9245 23.1367 72.093V56.0503H28.6104V72.093C28.6104 72.925 28.3221 73.723 27.8088 74.3113C27.2956 74.8996 26.5994 75.2302 25.8736 75.2302Z" fill="#263238" fill-opacity="0.88" stroke="#263238" stroke-opacity="0.88" stroke-linecap="round" stroke-linejoin="round"/>
<path d="M29.3942 44.4832H22.3574V46.7691H29.3942V44.4832Z" fill="white" stroke="#263238" stroke-opacity="0.88" stroke-linecap="round" stroke-linejoin="round"/>
<path d="M17.5787 75.2297C16.8533 75.2279 16.1581 74.8968 15.6452 74.3088C15.1322 73.7209 14.8434 72.924 14.8418 72.0925V46.0068H20.3155V72.0925C20.3155 72.9246 20.0272 73.7225 19.5139 74.3108C19.0007 74.8992 18.3045 75.2297 17.5787 75.2297Z" fill="white" stroke="#263238" stroke-opacity="0.88" stroke-linecap="round" stroke-linejoin="round"/>
<path d="M17.5787 75.2302C16.8533 75.2283 16.1581 74.8972 15.6452 74.3093C15.1322 73.7214 14.8434 72.9245 14.8418 72.093V56.0503H20.3155V72.093C20.3155 72.925 20.0272 73.723 19.5139 74.3113C19.0007 74.8996 18.3045 75.2302 17.5787 75.2302Z" fill="#263238" fill-opacity="0.88" stroke="#263238" stroke-opacity="0.88" stroke-linecap="round" stroke-linejoin="round"/>
<path d="M21.1003 44.4832H14.0635V46.7691H21.1003V44.4832Z" fill="white" stroke="#263238" stroke-opacity="0.88" stroke-linecap="round" stroke-linejoin="round"/>
<path d="M96.5416 18.7677L98.7215 12.768C98.7585 12.6713 98.82 12.5896 98.8979 12.5333C98.9758 12.477 99.0666 12.4488 99.1587 12.4522C99.251 12.4575 99.3396 12.4953 99.4125 12.5604C99.4853 12.6255 99.5389 12.7148 99.5659 12.8161L102.207 22.7973L104.219 15.4452C104.247 15.3418 104.302 15.2509 104.377 15.1856C104.453 15.1203 104.544 15.0838 104.638 15.0814C104.732 15.0843 104.822 15.1183 104.899 15.1793C104.975 15.2403 105.035 15.3255 105.07 15.4246L106.189 19.1178H112.244C113.483 17.6334 114.204 15.6792 114.268 13.6261C114.28 11.7084 113.673 9.85342 112.564 8.41745C111.455 6.98147 109.922 6.06574 108.26 5.84611C106.598 5.62649 104.924 6.11846 103.559 7.22754C102.194 8.33661 101.235 9.9846 100.865 11.855C100.485 9.99771 99.5223 8.3655 98.1604 7.2688C96.7985 6.1721 95.1325 5.68741 93.4791 5.90693C91.8258 6.12645 90.3006 7.03485 89.1934 8.45937C88.0863 9.88389 87.4746 11.7251 87.4746 13.6329C87.5412 15.5343 88.1634 17.3548 89.2413 18.802L96.5416 18.7677Z" fill="#263238" fill-opacity="0.88"/>
<path d="M105.872 20.1477C105.779 20.1481 105.688 20.1153 105.612 20.0538C105.535 19.9923 105.478 19.9052 105.447 19.8045L104.668 17.2371L102.626 24.699C102.597 24.8041 102.54 24.8959 102.462 24.9613C102.385 25.0266 102.291 25.0622 102.195 25.0628C102.098 25.0624 102.005 25.0261 101.928 24.9592C101.851 24.8923 101.796 24.7985 101.77 24.6921L99.0687 14.4844L97.2721 19.4818C97.238 19.5752 97.1805 19.655 97.107 19.7112C97.0335 19.7673 96.9472 19.7974 96.8589 19.7976H89.9658C91.445 21.6923 93.2896 23.3672 94.667 24.9255C96.7511 27.287 98.7933 29.7308 100.919 32.0099C103.644 28.9276 106.387 25.8317 109.088 22.7494C109.837 21.8913 110.651 21.0401 111.406 20.1477H105.872Z" fill="#263238" fill-opacity="0.88"/>
<path d="M4.8457 173.582L7.78223 174.75L10.9597 164.25L8.02314 163.082L4.8457 173.582Z" fill="white" stroke="#263238" stroke-opacity="0.88" stroke-miterlimit="10"/>
<path d="M3.45423 175.249L7.98633 177.051L8.58492 175.073L4.05283 173.271L3.45423 175.249Z" fill="white" stroke="#263238" stroke-opacity="0.88" stroke-miterlimit="10"/>
<path d="M4.78565 165.784L12.0449 168.67L17.8012 149.648L10.5419 146.762L4.78565 165.784Z" fill="white" stroke="#263238" stroke-opacity="0.88" stroke-miterlimit="10"/>
<path d="M8.31566 157.647L13.6738 159.777L16.8513 149.277L11.4931 147.147L8.31566 157.647Z" fill="#263238" fill-opacity="0.88" stroke="#263238" stroke-opacity="0.88" stroke-miterlimit="10"/>
<path d="M7.36718 165.258L10.3037 166.426L13.4811 155.926L10.5446 154.758L7.36718 165.258Z" fill="#263238" fill-opacity="0.88" stroke="#263238" stroke-opacity="0.88" stroke-miterlimit="10"/>
<path d="M4.27366 165.585L12.5684 168.883L13.2886 166.503L4.99394 163.205L4.27366 165.585Z" fill="white" stroke="#263238" stroke-opacity="0.88" stroke-miterlimit="10"/>
<path d="M12.312 146.366L16.6348 148.084L17.5945 144.913L13.2717 143.194L12.312 146.366Z" fill="white" stroke="#263238" stroke-opacity="0.88" stroke-miterlimit="10"/>
<path d="M9.84886 147.155L18.1436 150.453L18.8638 148.073L10.5691 144.775L9.84886 147.155Z" fill="white" stroke="#263238" stroke-opacity="0.88" stroke-miterlimit="10"/>
<path d="M15.4775 143.623L18.951 132.131" stroke="#263238" stroke-opacity="0.88" stroke-miterlimit="10"/>
<path d="M208.603 286.442C225.911 286.442 239.942 282.815 239.942 278.342C239.942 273.868 225.911 270.241 208.603 270.241C191.295 270.241 177.264 273.868 177.264 278.342C177.264 282.815 191.295 286.442 208.603 286.442Z" fill="#263238" fill-opacity="0.88" stroke="#263238" stroke-opacity="0.88" stroke-linecap="round" stroke-linejoin="round"/>
<path d="M184.439 95.2471C184.439 95.2471 180.199 98.2195 180.247 99.5238C180.294 100.828 178.666 124.614 178.48 127.586C178.294 130.559 175.827 136.696 175.635 139.483C175.444 142.27 176.054 145.064 176.767 146.348C177.48 147.631 180.097 151.736 180.097 151.736L187.134 139.277C187.306 136.556 187.342 133.827 187.241 131.101C187.134 125.163 184.439 95.2471 184.439 95.2471Z" fill="white" stroke="#263238" stroke-opacity="0.88" stroke-linecap="round" stroke-linejoin="round"/>
<path d="M211.514 36.3074C211.514 36.3074 204.028 35.7582 199.764 41.7099C195.5 47.6616 196.416 56.7641 196.386 59.558C196.356 62.3519 189.116 70.5415 189.918 73.8777C190.721 77.2139 192.853 77.5915 192.17 80.3785C191.487 83.1656 187.031 84.8406 187.678 88.3759C188.325 91.9112 190.673 96.9224 190.673 96.9224L233.792 97.2587C233.792 97.2587 235.331 92.0553 233.69 88.1493C232.049 84.2433 229.719 82.9528 230.097 81.0924C230.474 79.2321 232.558 74.7701 231.756 71.427C230.953 68.0839 228.162 67.1572 227.869 61.2055C227.575 55.2539 226.809 45.4168 222.689 40.6115C218.568 35.8063 211.514 36.3074 211.514 36.3074Z" fill="#263238" fill-opacity="0.88" stroke="#263238" stroke-opacity="0.88" stroke-linecap="round" stroke-linejoin="round"/>
<path d="M198.254 265.662C196.93 268.587 195.323 271.332 193.463 273.845C190.708 277.38 188.037 279.24 188.127 281.101C188.217 282.961 194.23 283.325 197.41 282.021C200.59 280.716 202.901 278.115 203.542 277.902C204.183 277.689 205.974 277.902 206.016 275.293C206.058 272.685 205.71 265.257 205.71 265.257L198.254 265.662Z" fill="white" stroke="#263238" stroke-opacity="0.88" stroke-linecap="round" stroke-linejoin="round"/>
<path d="M197.398 282.021C200.584 280.716 202.89 278.115 203.53 277.902C204.171 277.689 205.962 277.902 206.004 275.293C206.004 273.92 205.938 271.174 205.854 268.93C205.383 269.943 204.685 270.794 203.833 271.397C202.981 272 202.004 272.333 201.003 272.362C201.003 272.362 200.943 271.058 199.207 268.834C198.087 267.378 196.955 268.525 196.296 269.52L195.763 270.44L195.721 270.529C195.03 271.698 194.274 272.815 193.457 273.872C190.702 277.408 188.032 279.268 188.121 281.128C188.211 282.989 194.218 283.325 197.398 282.021Z" fill="white" stroke="#263238" stroke-opacity="0.88" stroke-linecap="round" stroke-linejoin="round"/>
<path d="M220.443 265.648C222.053 268.584 223.919 271.323 226.013 273.824C229.097 277.353 231.942 279.206 232.002 281.067C232.062 282.927 226.109 283.298 222.803 282C219.497 280.703 216.946 278.101 216.293 277.916C215.64 277.73 213.856 277.916 213.574 275.321C213.293 272.726 212.939 265.285 212.939 265.285L220.443 265.648Z" fill="white" stroke="#263238" stroke-opacity="0.88" stroke-linecap="round" stroke-linejoin="round"/>
<path d="M222.827 282C219.527 280.703 216.97 278.101 216.317 277.916C215.665 277.73 213.88 277.916 213.598 275.321C213.449 273.948 213.281 271.202 213.155 268.95C213.709 269.957 214.47 270.792 215.371 271.384C216.272 271.975 217.286 272.304 218.324 272.341C218.324 272.341 218.264 271.037 219.779 268.806C220.767 267.358 222.007 268.497 222.773 269.493C222.971 269.795 223.174 270.097 223.372 270.413L223.426 270.502C224.231 271.669 225.091 272.785 226.001 273.845C229.085 277.373 231.93 279.227 231.99 281.087C232.05 282.947 226.133 283.297 222.827 282Z" fill="white" stroke="#263238" stroke-opacity="0.88" stroke-linecap="round" stroke-linejoin="round"/>
<path d="M185.229 167.546C185.229 167.546 186.23 206.201 187.559 213.82C188.889 221.44 194.824 265.113 194.824 265.113C196.638 265.993 198.591 266.432 200.561 266.404H207.047L207.645 233.879L207.867 186.671L211.119 266.582C211.119 266.582 220.054 266.946 221.018 266.761C221.983 266.575 222.785 266.39 222.785 266.39L228.528 215.832L231.816 182.195L231.996 168.816C231.996 168.816 204.543 167.724 196.566 166.983C188.589 166.242 185.307 166.056 185.307 166.056L185.229 167.546Z" fill="#008C73" fill-opacity="0.39" stroke="#263238" stroke-opacity="0.88" stroke-linecap="round" stroke-linejoin="round"/>
<path d="M222.3 235.794C222.228 236.439 222.156 237.037 222.072 237.586" stroke="#263238" stroke-opacity="0.88" stroke-linecap="round" stroke-linejoin="round"/>
<path d="M223.036 189.259C223.036 189.259 223.593 216.8 222.617 231.751" stroke="#263238" stroke-opacity="0.88" stroke-linecap="round" stroke-linejoin="round"/>
<path d="M193.602 187.048C193.602 187.048 194.29 205.267 194.973 209.351" stroke="#263238" stroke-opacity="0.88" stroke-linecap="round" stroke-linejoin="round"/>
<path d="M219.191 175.44V189.348C220.746 189.828 222.336 190.142 223.941 190.288C226.402 190.474 230.995 190.288 230.995 190.288L231.325 185.023L219.191 175.44Z" fill="#263238" fill-opacity="0.88" stroke="#263238" stroke-opacity="0.88" stroke-linecap="round" stroke-linejoin="round"/>
<path d="M185.739 186.149C185.739 186.149 191.973 188.408 194.596 188.593C197.219 188.778 199.674 189.156 199.674 189.156L199.351 185.401L185.409 183.897L185.739 186.149Z" fill="#263238" fill-opacity="0.88" stroke="#263238" stroke-opacity="0.88" stroke-linecap="round" stroke-linejoin="round"/>
<path d="M204.663 80.5496L199.77 86.8719L186.199 98.2192L189.092 166.996C189.092 166.996 199.908 170.332 209.19 171.259C218.473 172.186 230.408 169.749 230.408 169.749L228.654 97.67C228.654 97.67 223.371 88.746 220.665 86.3365C217.958 83.927 216.718 81.696 213.131 81.3253C209.543 80.9546 204.663 80.5496 204.663 80.5496Z" fill="#008C73" fill-opacity="0.39" stroke="#263238" stroke-opacity="0.88" stroke-linecap="round" stroke-linejoin="round"/>
<path d="M198.985 83.934L184.438 95.2813L186.72 137.094L185.948 141.295L179.833 149.368L182.438 163.55L181.276 183.561C181.276 183.561 187.055 185.792 190.972 186.341C193.888 186.699 196.819 186.885 199.752 186.897L200.255 159.576C200.255 159.576 202.189 114.221 202.417 112.21C202.644 110.198 204.662 80.6321 204.662 80.6321L198.985 83.934Z" fill="white" stroke="#263238" stroke-opacity="0.88" stroke-linecap="round" stroke-linejoin="round"/>
<path d="M199.219 85.6433L192.176 105.887L199.776 109.505L192.601 111.001L198.955 139.538" stroke="#263238" stroke-opacity="0.88" stroke-linecap="round" stroke-linejoin="round"/>
<path d="M203.441 75.1611C203.441 75.1611 205.969 94.4851 207.957 98.9472C209.945 103.409 210.508 104.892 210.508 104.892C210.508 104.892 214.832 89.8309 215.7 87.5999C216.569 85.3689 217.497 77.3784 217.497 77.3784C217.497 77.3784 208.879 80.543 203.441 75.1611Z" fill="white" stroke="#263238" stroke-opacity="0.88" stroke-linecap="round" stroke-linejoin="round"/>
<path d="M203.441 75.1611C203.441 75.1611 203.669 76.9185 204.04 79.4927C205.304 80.5979 208.652 83.3301 211.125 83.4742C213.011 83.5841 215.407 82.1837 217 81.0647C217.287 79.0397 217.485 77.3784 217.485 77.3784C217.485 77.3784 208.879 80.543 203.441 75.1611Z" fill="#263238" fill-opacity="0.88" stroke="#263238" stroke-opacity="0.88" stroke-linecap="round" stroke-linejoin="round"/>
<path d="M200.01 61.8022C200.01 61.8022 198.285 58.9877 197.123 61.8022C195.961 64.6167 198.92 68.7835 199.746 69.3533C202.094 70.9528 201.471 67.9804 201.471 67.9804L200.01 61.8022Z" fill="white" stroke="#263238" stroke-opacity="0.88" stroke-linecap="round" stroke-linejoin="round"/>
<path d="M221.432 63.0174C221.432 63.0174 222.887 60.1068 224.312 62.8527C225.738 65.5985 223.168 69.9164 222.402 70.5274C220.21 72.2641 220.557 69.2849 220.557 69.2849L221.432 63.0174Z" fill="white" stroke="#263238" stroke-opacity="0.88" stroke-linecap="round" stroke-linejoin="round"/>
<path d="M199.603 59.3174C199.603 59.3174 205.855 57.6424 209.005 55.5075C210.934 54.1717 212.617 52.4156 213.958 50.3384C213.958 50.3384 216.665 56.2008 219.048 58.576C221.432 60.9511 221.929 61.0884 221.929 61.0884C221.929 61.0884 220.785 71.3511 219.491 74.9207C218.198 78.4904 213.976 81.9639 210.035 80.9616C207.795 80.3987 203.914 78.5453 202.789 75.4219C201.663 72.2984 199.603 59.3174 199.603 59.3174Z" fill="white" stroke="#263238" stroke-opacity="0.88" stroke-linecap="round" stroke-linejoin="round"/>
<path d="M215.557 67.2047C213.616 67.2597 207.118 67.2734 203.765 64.9531C202.42 64.0561 201.162 63 200.01 61.8022C200.13 62.4887 200.273 63.3468 200.429 64.2392L201.16 64.8502L202.992 72.7857L202.136 72.9985C202.316 73.8097 202.534 74.6094 202.789 75.3943C203.914 78.5177 207.795 80.3712 210.035 80.9341C213.97 81.9294 218.18 78.4765 219.485 74.9138C219.177 74.2216 219.086 73.429 219.228 72.669C219.605 70.4243 220.072 66.4908 220.072 66.4908L221.408 65.1179C221.479 64.6168 221.539 64.1362 221.599 63.6969C219.982 64.9806 216.952 67.1636 215.557 67.2047Z" fill="#008C73" fill-opacity="0.39" stroke="#263238" stroke-opacity="0.88" stroke-linecap="round" stroke-linejoin="round"/>
<path d="M208.424 63.8891C208.424 63.8891 206.334 60.9784 203.591 61.2462" stroke="#263238" stroke-opacity="0.88" stroke-linecap="round" stroke-linejoin="round"/>
<path d="M213.808 64.466C214.474 63.6623 215.303 63.0581 216.221 62.7063C217.138 62.3545 218.117 62.2657 219.072 62.4478" stroke="#263238" stroke-opacity="0.88" stroke-linecap="round" stroke-linejoin="round"/>
<path d="M202.387 59.7913C202.387 59.7913 205.381 58.4183 208.034 59.0636" stroke="#263238" stroke-opacity="0.88" stroke-linecap="round" stroke-linejoin="round"/>
<path d="M214.053 59.8118C214.842 59.3498 215.735 59.177 216.613 59.317C217.49 59.457 218.309 59.903 218.958 60.5944" stroke="#263238" stroke-opacity="0.88" stroke-linecap="round" stroke-linejoin="round"/>
<path d="M206.412 62.9351C206.425 63.0406 206.42 63.1481 206.398 63.2515C206.375 63.3549 206.334 63.4521 206.279 63.5376C206.223 63.6231 206.153 63.6951 206.073 63.7496C205.993 63.804 205.905 63.8398 205.813 63.855C205.625 63.8308 205.453 63.7258 205.331 63.5614C205.208 63.3969 205.145 63.1853 205.154 62.9694C205.14 62.8638 205.144 62.756 205.166 62.6522C205.189 62.5484 205.229 62.4509 205.285 62.3652C205.34 62.2795 205.411 62.2075 205.491 62.1533C205.571 62.0991 205.66 62.0638 205.753 62.0496C205.94 62.0753 206.111 62.1807 206.233 62.3448C206.355 62.5089 206.419 62.7196 206.412 62.9351Z" fill="#263238" fill-opacity="0.88"/>
<path d="M217.257 63.8274C217.273 63.9333 217.27 64.0418 217.249 64.1463C217.227 64.2508 217.187 64.3492 217.131 64.4353C217.075 64.5214 217.004 64.5935 216.923 64.6471C216.841 64.7008 216.751 64.7349 216.658 64.7473C216.471 64.7247 216.299 64.6212 216.177 64.4579C216.054 64.2945 215.991 64.0837 216 63.8686C215.983 63.7627 215.986 63.6542 216.008 63.5497C216.03 63.4452 216.07 63.3469 216.126 63.2607C216.182 63.1746 216.253 63.1025 216.334 63.0489C216.415 62.9952 216.505 62.9611 216.598 62.9487C216.785 62.9713 216.958 63.0748 217.08 63.2381C217.202 63.4015 217.266 63.6123 217.257 63.8274Z" fill="#263238" fill-opacity="0.88"/>
<path d="M233.385 91.3069C233.385 91.3069 236.876 93.1603 238.176 96.1121C239.475 99.064 249.866 131.046 249.818 133.463C249.77 135.879 246.332 138.666 243.111 139.044C239.889 139.421 235.193 132.728 234.493 131.616C233.792 130.504 233.666 117.489 233.666 117.489L233.385 91.3069Z" fill="white" stroke="#263238" stroke-opacity="0.88" stroke-linecap="round" stroke-linejoin="round"/>
<path d="M216.928 82.7671L218.629 146.705L219.227 187.034C222.488 187.954 225.829 188.449 229.187 188.51C231.987 188.578 234.772 188.008 237.379 186.835C237.379 186.835 236.361 161.745 236.182 157.654C236.002 153.562 234.816 145.757 234.816 145.757L233.403 91.3067C233.403 91.3067 220.246 84.2499 216.928 82.7671Z" fill="white" stroke="#263238" stroke-opacity="0.88" stroke-linecap="round" stroke-linejoin="round"/>
<path d="M220.665 86.2957L226.695 108.846L221.198 110.555L226.545 113.528L219.874 137.822" fill="white"/>
<path d="M220.665 86.2957L226.695 108.846L221.198 110.555L226.545 113.528L219.874 137.822" stroke="#263238" stroke-opacity="0.88" stroke-linecap="round" stroke-linejoin="round"/>
<path d="M224.869 106.924L217.389 148.002C217.389 148.002 222.503 149.855 226.24 150.061C229.977 150.267 237.762 150.24 237.762 150.24L245.548 111.949C245.548 111.949 230.223 110.267 224.869 106.924Z" fill="#263238" fill-opacity="0.88" stroke="#263238" stroke-opacity="0.88" stroke-linecap="round" stroke-linejoin="round"/>
<path d="M227.474 145.208L227.719 132.371L233.654 133.806C233.654 133.806 229.731 143.711 227.474 145.208Z" fill="white" stroke="#263238" stroke-opacity="0.88" stroke-linecap="round" stroke-linejoin="round"/>
<path d="M232.019 127.731C232.019 127.731 230.438 125.136 229.929 124.573C229.42 124.01 226.905 122.349 226.42 122.349C225.935 122.349 223.329 122.164 222.826 122.164C222.323 122.164 221.754 123.468 222.269 124.024C222.784 124.58 224.575 124.765 224.575 124.765L225.803 126.825L220.263 126.269C220.263 126.269 219.341 127.388 219.551 128.328C219.707 128.965 219.908 129.587 220.149 130.188C220.128 131.553 220.19 132.918 220.335 134.273C220.551 135.392 221.533 135.762 222.88 136.689C224.228 137.616 228.737 137.06 228.737 137.06H230.821L232.019 127.731Z" fill="white" stroke="#263238" stroke-opacity="0.88" stroke-linecap="round" stroke-linejoin="round"/>
<path d="M245.524 129.021L231.151 126.804C231.151 126.804 230.031 137.403 228.899 140.931C227.767 144.46 227.474 145.208 227.474 145.208C227.474 145.208 242.535 144.824 246.087 144.453C249.638 144.082 251.632 141.659 251.477 138.316C251.321 134.973 249.542 131.623 249.542 131.623" fill="white"/>
<path d="M245.524 129.021L231.151 126.804C231.151 126.804 230.031 137.403 228.899 140.931C227.767 144.46 227.474 145.208 227.474 145.208C227.474 145.208 242.535 144.824 246.087 144.453C249.638 144.082 251.632 141.659 251.477 138.316C251.321 134.973 249.542 131.623 249.542 131.623" stroke="#263238" stroke-opacity="0.88" stroke-linecap="round" stroke-linejoin="round"/>
<path d="M185.588 140.595C185.588 140.595 188.942 143.004 189.78 143.753C190.619 144.501 190.691 149.327 191.224 150.254C191.757 151.18 191.128 151.743 190.158 151.743C189.188 151.743 187.72 148.215 187.72 148.215L187.66 146.91L180.809 149.519L179.013 145.991C179.013 145.991 181.049 140.595 185.588 140.595Z" fill="white" stroke="#263238" stroke-opacity="0.88" stroke-linecap="round" stroke-linejoin="round"/>
<path d="M135.679 286.442C152.987 286.442 167.018 282.816 167.018 278.342C167.018 273.868 152.987 270.242 135.679 270.242C118.371 270.242 104.34 273.868 104.34 278.342C104.34 282.816 118.371 286.442 135.679 286.442Z" fill="#263238" fill-opacity="0.88" stroke="#263238" stroke-opacity="0.88" stroke-linecap="round" stroke-linejoin="round"/>
<path d="M160.155 85.8501C160.155 85.8501 164.263 109.485 164.994 113.858C165.724 118.231 167.066 128.624 168.587 133.182C170.108 137.74 169.611 143.575 168.85 145.216C168.087 146.641 167.211 147.983 166.233 149.225L161.131 141.598C161.131 141.598 158.094 104.227 157.981 98.9342C157.867 93.6415 160.155 85.8501 160.155 85.8501Z" fill="white" stroke="#263238" stroke-opacity="0.88" stroke-linecap="round" stroke-linejoin="round"/>
<path d="M162.861 140.664C162.861 140.664 166.095 142.978 166.664 143.959C167.233 144.941 167.64 146.19 167.197 147.254C166.754 148.318 164.341 151.531 163.73 152.156C163.119 152.78 162.604 150.289 162.532 148.147C162.46 146.005 162.861 140.664 162.861 140.664Z" fill="white" stroke="#263238" stroke-opacity="0.88" stroke-linecap="round" stroke-linejoin="round"/>
<path d="M145.47 270.269C145.47 270.269 155.609 275.919 156.25 277.017C156.891 278.115 154.579 279.577 148.536 279.577C142.494 279.577 142.314 278.664 139.913 277.937C137.511 277.209 132.726 277.751 132.079 276.111C131.433 274.47 132.558 268.821 132.558 268.821L145.47 270.269Z" fill="white" stroke="#263238" stroke-opacity="0.88" stroke-linecap="round" stroke-linejoin="round"/>
<path d="M132.007 273.186C132.007 273.186 140.392 279.021 139.655 281.026C138.918 283.03 132.858 283.03 129.666 282.481C126.474 281.932 119.689 276.989 119.329 275.191C118.97 273.392 119.868 270.633 124.785 270.09C129.702 269.548 132.007 273.186 132.007 273.186Z" fill="white" stroke="#263238" stroke-opacity="0.88" stroke-linecap="round" stroke-linejoin="round"/>
<path d="M157.459 177.843C157.459 177.843 152.668 220.136 151.836 226.335C151.004 232.534 148.363 242.378 146.937 249.853C146.129 254.25 145.53 258.693 145.141 263.164C144.995 264.436 145.021 265.725 145.218 266.988C145.422 268.814 145.452 270.269 145.452 270.269C143.319 270.882 141.149 271.309 138.96 271.546C136.259 271.731 132.6 271.731 132.6 271.731L131.402 259.883C131.402 259.883 132.295 242.378 132.822 237.277C133.349 232.177 133.912 192.067 133.888 190.968C133.864 189.87 133.654 180.211 133.654 180.211L149.973 178.207C149.973 178.207 152.201 170.917 155.549 171.281C158.897 171.644 157.459 177.843 157.459 177.843Z" fill="white" stroke="#263238" stroke-opacity="0.88" stroke-linecap="round" stroke-linejoin="round"/>
<path d="M155.573 171.281C152.225 170.917 149.998 178.207 149.998 178.207L133.66 180.211C133.66 180.211 133.714 182.779 133.768 185.415C135.511 185.593 137.122 185.696 138.499 185.696C143.733 185.687 148.963 185.35 154.166 184.687L154.866 176.285L155.962 184.845L156.717 184.564C157.184 180.486 157.483 177.829 157.483 177.829C157.483 177.829 158.921 171.644 155.573 171.281Z" fill="#263238" fill-opacity="0.88" stroke="#263238" stroke-opacity="0.88" stroke-linecap="round" stroke-linejoin="round"/>
<path d="M116.616 179.12C116.616 179.12 116.616 179.381 116.652 179.854C116.874 184.838 118.191 213.718 118.593 219.045C119.042 224.88 116.796 231.257 116.91 236.543C117.023 241.829 118.107 270.454 118.107 270.454L119.305 275.191C119.305 275.191 122.12 273.008 124.821 273.008C127.522 273.008 132.007 273.186 132.007 273.186C132.007 273.186 132.241 269.356 132.217 268.086C132.193 266.816 132.091 262.251 132.091 262.251C132.091 262.251 136.661 238.369 136.936 236.364C137.212 234.36 140.757 199.721 140.733 198.609C140.709 197.497 141.482 182.017 141.482 182.017L116.616 179.12Z" fill="white" stroke="#263238" stroke-opacity="0.88" stroke-linecap="round" stroke-linejoin="round"/>
<path d="M141.314 185.662C141.416 183.548 141.488 182.037 141.488 182.037L116.616 179.12C116.616 179.12 116.616 179.381 116.652 179.854C116.652 180.458 116.718 181.413 116.778 182.6C122.593 183.795 132.684 185.676 138.499 185.676C139.457 185.696 140.392 185.682 141.314 185.662Z" fill="#263238" fill-opacity="0.88" stroke="#263238" stroke-opacity="0.88" stroke-linecap="round" stroke-linejoin="round"/>
<path d="M134.942 67.1852C134.942 67.1852 132.313 67.6931 131.313 69.0386C130.311 70.3473 129.409 71.753 128.618 73.2398C128.48 73.7478 113.017 84.5047 113.017 84.5047L114.131 135.797C114.131 135.797 114.592 143.699 113.772 146.39C112.386 151.681 111.713 157.183 111.778 162.707C111.921 169.263 112.293 179.869 112.293 179.869C112.293 179.869 129.989 183.905 138.499 183.905C143.734 183.891 148.964 183.549 154.166 182.882L154.867 174.473L155.933 183.054L159.568 181.681L162.562 156.282C162.562 156.282 164.646 150.9 164.622 149.719C164.599 148.538 165.149 147.028 164.545 146.019C163.94 145.01 162.862 142.992 162.862 142.992C162.862 142.992 160.155 87.3673 160.155 85.8502C160.155 84.3331 152.148 75.4296 151.555 75.0932C150.962 74.7569 147.309 68.5306 142.572 66.8556C137.835 65.1807 134.942 67.1852 134.942 67.1852Z" fill="white" stroke="#263238" stroke-opacity="0.88" stroke-linecap="round" stroke-linejoin="round"/>
<path d="M130.121 74.9211L128.349 93.3939L135.631 97.2725L133.81 103.54L152.022 140.225" stroke="#263238" stroke-opacity="0.88" stroke-linecap="round" stroke-linejoin="round"/>
<path d="M150.465 76.9946L155.927 91.6095L153.585 95.186L157.49 101.447L155.927 141.715" stroke="#263238" stroke-opacity="0.88" stroke-linecap="round" stroke-linejoin="round"/>
<path d="M134.266 69.7107C134.398 73.3146 134.969 76.8796 135.96 80.3029C137.535 85.3484 147.974 120.159 147.974 120.159L154.723 147.398C154.723 147.398 153.831 119.651 153.807 118.477C153.783 117.303 148.693 78.7858 148.693 78.7858C148.693 78.7858 147.824 72.5664 146.453 70.2118C145.081 67.8573 135.889 63.4845 134.266 69.7107Z" fill="#008C73" fill-opacity="0.39" stroke="#263238" stroke-opacity="0.88" stroke-linecap="round" stroke-linejoin="round"/>
<path d="M133.618 67.0203C133.618 67.0203 129.372 67.5214 130.121 74.9215C130.869 82.3216 131.857 87.3671 131.857 87.3671" stroke="#263238" stroke-opacity="0.88" stroke-width="2" stroke-linecap="round" stroke-linejoin="round"/>
<path d="M131.337 97.1216C131.337 97.1216 133.134 105.696 134.361 108.05C135.589 110.405 139.302 112.759 141.943 112.759" stroke="#263238" stroke-opacity="0.88" stroke-linecap="round" stroke-linejoin="round"/>
<path d="M137.014 95.1033C137.014 95.1033 138.99 105.023 139.32 106.876C139.649 108.73 138.559 112.251 136.727 115.8" stroke="#263238" stroke-opacity="0.88" stroke-linecap="round" stroke-linejoin="round"/>
<path d="M136.199 116.974C136.011 116.855 135.871 116.656 135.81 116.419C135.75 116.182 135.773 115.928 135.876 115.711L136.085 115.272C136.137 115.167 136.206 115.075 136.289 115.001C136.372 114.927 136.467 114.873 136.569 114.841C136.67 114.81 136.776 114.802 136.88 114.818C136.985 114.834 137.085 114.874 137.175 114.935C137.364 115.054 137.504 115.253 137.566 115.49C137.627 115.726 137.605 115.98 137.505 116.198L137.295 116.631C137.244 116.737 137.174 116.83 137.091 116.904C137.007 116.979 136.912 117.034 136.81 117.066C136.708 117.098 136.601 117.106 136.497 117.09C136.392 117.075 136.291 117.035 136.199 116.974Z" fill="#263238" fill-opacity="0.88"/>
<path d="M142.925 112.945C142.925 113.066 142.904 113.186 142.863 113.297C142.822 113.408 142.761 113.509 142.685 113.593C142.609 113.677 142.519 113.743 142.42 113.786C142.322 113.829 142.216 113.849 142.111 113.844H141.674C141.458 113.839 141.253 113.736 141.103 113.559C140.953 113.382 140.869 113.144 140.871 112.897C140.87 112.776 140.891 112.656 140.931 112.545C140.972 112.434 141.032 112.333 141.107 112.249C141.183 112.165 141.273 112.099 141.371 112.056C141.469 112.013 141.574 111.993 141.68 111.997H142.117C142.332 112.005 142.537 112.107 142.688 112.284C142.839 112.461 142.924 112.698 142.925 112.945Z" fill="#263238" fill-opacity="0.88"/>
<path d="M131.348 97.7943L130.342 90.4834C130.23 89.7296 130.372 88.9551 130.741 88.3175C131.109 87.6798 131.675 87.227 132.324 87.0511C133.024 86.8687 133.758 87.0043 134.372 87.4293C134.987 87.8543 135.433 88.5356 135.618 89.3301L137.337 96.6067" stroke="#263238" stroke-opacity="0.88" stroke-width="2" stroke-linecap="round" stroke-linejoin="round"/>
<path d="M155.021 102.735C156.463 102.57 157.497 100.891 157.33 98.9863C157.164 97.0812 155.86 95.6711 154.419 95.8366C152.977 96.0021 151.944 97.6806 152.11 99.5856C152.276 101.491 153.58 102.901 155.021 102.735Z" fill="white" stroke="#263238" stroke-opacity="0.88" stroke-linecap="round" stroke-linejoin="round"/>
<path d="M147.655 70.1023C147.655 70.1023 153.422 79.4039 155.261 98.3641" stroke="#263238" stroke-opacity="0.88" stroke-width="2" stroke-linecap="round" stroke-linejoin="round"/>
<path d="M155.415 100.559C156.202 100.475 156.771 99.5533 156.686 98.5001C156.6 97.4469 155.893 96.661 155.106 96.7449C154.319 96.8288 153.75 97.7505 153.835 98.8037C153.921 99.857 154.628 100.643 155.415 100.559Z" fill="white" stroke="#263238" stroke-opacity="0.88" stroke-linecap="round" stroke-linejoin="round"/>
<path d="M163.844 142.113C163.49 143.369 163.2 144.648 162.976 145.943C162.976 146.492 162.862 148.133 161.742 147.762C160.622 147.392 160.957 140.836 161.101 140.108C161.245 139.381 163.97 141.735 163.97 141.735" fill="white"/>
<path d="M163.844 142.113C163.49 143.369 163.2 144.648 162.976 145.943C162.976 146.492 162.862 148.133 161.742 147.762C160.622 147.392 160.957 140.836 161.101 140.108C161.245 139.381 163.97 141.735 163.97 141.735" stroke="#263238" stroke-opacity="0.88" stroke-linecap="round" stroke-linejoin="round"/>
<path d="M127.492 136.305C128.488 136.934 129.601 137.28 130.738 137.314C132.499 137.314 135.715 136.628 136.894 136.978C138.074 137.328 141.087 141.68 141.087 141.68C141.087 141.68 141.985 142.689 141.56 143.197C141.134 143.705 140.266 144.57 139.667 144.035C139.068 143.499 136.074 140.671 136.074 140.671L128.522 144.206L125.42 142.353L127.492 136.305Z" fill="white" stroke="#263238" stroke-opacity="0.88" stroke-linecap="round" stroke-linejoin="round"/>
<path d="M115.927 83.3303C115.927 83.3303 110.951 84.0168 110.106 85.5133C109.262 87.0098 95.6254 121.333 95.6553 122.85C95.6853 124.367 122.922 148.936 122.922 148.936L128.803 136.106L114.089 120.468L120.473 103.485" fill="white"/>
<path d="M115.927 83.3303C115.927 83.3303 110.951 84.0168 110.106 85.5133C109.262 87.0098 95.6254 121.333 95.6553 122.85C95.6853 124.367 122.922 148.936 122.922 148.936L128.803 136.106L114.089 120.468L120.473 103.485" stroke="#263238" stroke-opacity="0.88" stroke-linecap="round" stroke-linejoin="round"/>
<path d="M125.108 155.135L139.493 155.471L139.422 145.215" stroke="#263238" stroke-opacity="0.88" stroke-linecap="round" stroke-linejoin="round"/>
<path d="M128.54 144.206L124.737 145.833" stroke="#263238" stroke-opacity="0.88" stroke-linecap="round" stroke-linejoin="round"/>
<path d="M132.877 59.7847C132.877 59.7847 134.512 74.4202 135.59 76.6031C136.668 78.7861 144.333 87.5317 144.333 87.5317C144.333 87.5317 146.729 77.4475 146.998 75.0929C147.268 72.7383 147.477 63.32 147.477 63.32L132.847 58.6108L132.877 59.7847Z" fill="white" stroke="#263238" stroke-opacity="0.88" stroke-linecap="round" stroke-linejoin="round"/>
<path d="M132.877 59.7847C132.877 59.7847 133.068 61.5009 133.362 63.8417C134.508 65.0657 135.819 66.0715 137.242 66.821C139.129 67.7752 144.159 68.3106 147.339 67.885C147.423 65.4206 147.477 63.32 147.477 63.32L132.847 58.6108L132.877 59.7847Z" fill="#263238" fill-opacity="0.88" stroke="#263238" stroke-opacity="0.88" stroke-linecap="round" stroke-linejoin="round"/>
<path d="M128.636 47.0096C128.636 47.0096 126.677 44.655 125.707 47.3391C124.737 50.0232 126.905 54.0665 128.061 54.2381C128.747 54.3406 129.443 54.2822 130.109 54.0665C130.109 54.0665 130.929 57.9381 131.684 59.112C133.169 61.2645 135.072 62.9898 137.242 64.1507C139.912 65.5236 148.854 66.011 149.986 64.1507C151.117 62.2903 151.052 52.3778 151.034 51.5403C151.016 50.7028 150.89 38.7171 150.89 38.7171C150.89 38.7171 151.692 34.5571 150.602 31.6945C149.512 28.832 138.571 24.8299 135.822 26.4843C133.073 28.1386 129.905 31.0218 129.69 34.7219C129.474 38.4219 129.606 44.4765 129.606 44.4765L128.636 47.0096Z" fill="white" stroke="#263238" stroke-opacity="0.88" stroke-linecap="round" stroke-linejoin="round"/>
<path d="M144.805 41.7925C144.805 41.7925 146.632 51.403 146.213 52.5563C145.793 53.7095 144.482 53.7301 142.841 52.721C141.2 51.7119 142.056 50.3664 142.056 50.3664" stroke="#263238" stroke-opacity="0.88" stroke-linecap="round" stroke-linejoin="round"/>
<path d="M138.445 52.8926C138.445 52.8926 139.236 55.4119 140.703 55.5835C142.17 55.7551 145.853 56.0846 145.853 56.0846" stroke="#263238" stroke-opacity="0.88" stroke-linecap="round" stroke-linejoin="round"/>
<path d="M133.205 42.1292L133.439 46.1656C133.439 46.1656 134.78 47.0099 137.858 47.0099C140.937 47.0099 141.949 46.1656 141.949 46.1656L141.865 42.1292C141.865 42.1292 137.397 39.1018 133.205 42.1292Z" stroke="#263238" stroke-opacity="0.88" stroke-linecap="round" stroke-linejoin="round"/>
<path d="M144.817 42.129L145.931 46.3371C145.931 46.3371 146.386 47.0235 149.471 47.0235C152.555 47.0235 153.567 46.1792 153.567 46.1792L153.477 42.1428C153.477 42.1428 149.004 39.1017 144.817 42.129Z" stroke="#263238" stroke-opacity="0.88" stroke-linecap="round" stroke-linejoin="round"/>
<path d="M141.883 42.1289H144.817" stroke="#263238" stroke-opacity="0.88" stroke-linecap="round" stroke-linejoin="round"/>
<path d="M133.223 42.1289L127.438 46.0006" stroke="#263238" stroke-opacity="0.88" stroke-linecap="round" stroke-linejoin="round"/>
<path d="M134.648 40.1106C134.648 40.1106 136.217 38.0924 139.775 39.7742" stroke="#263238" stroke-opacity="0.88" stroke-linecap="round" stroke-linejoin="round"/>
<path d="M145.356 40.1104C145.885 39.6245 146.522 39.3197 147.195 39.2311C147.868 39.1424 148.549 39.2735 149.159 39.6093" stroke="#263238" stroke-opacity="0.88" stroke-linecap="round" stroke-linejoin="round"/>
<path d="M138.397 43.9823C138.397 44.7237 138.163 45.3552 137.84 45.3552C137.517 45.3552 137.241 44.7511 137.241 43.9823C137.241 43.2135 137.475 42.6094 137.804 42.6094C138.134 42.6094 138.385 43.2341 138.397 43.9823Z" fill="#263238" fill-opacity="0.88"/>
<path d="M147.788 43.8107C147.788 44.5521 147.554 45.1836 147.231 45.1836C146.907 45.1836 146.632 44.5795 146.632 43.8107C146.632 43.0418 146.865 42.4377 147.189 42.4377C147.512 42.4377 147.77 43.0693 147.788 43.8107Z" fill="#263238" fill-opacity="0.88"/>
<path d="M137.739 28.2553C137.739 28.2553 139.152 31.8318 137.397 33.1361C136.856 33.4953 136.241 33.6844 135.616 33.6844C134.99 33.6844 134.376 33.4953 133.834 33.1361C134.301 33.8748 134.561 34.758 134.581 35.6696C134.602 36.5812 134.381 37.4784 133.948 38.2434C133.088 39.8863 132.084 41.4249 130.953 42.8359C130.953 42.8359 131.271 47.1812 130.612 47.6892C129.953 48.1972 128.157 47.4352 128.127 46.1584C128.097 44.8815 127.378 42.3279 127.348 41.0511C127.318 39.7742 126.803 36.4517 126.803 36.4517C126.803 36.4517 122.3 34.1521 124.689 31.3444C127.079 28.5368 132.151 26.2371 132.151 26.2371C132.151 26.2371 132.265 21.1298 135.349 19.599C138.433 18.0682 145.069 15.7685 145.123 18.3222C145.207 19.6364 145.001 20.9538 144.524 22.1527C144.524 22.1527 150.088 21.8987 153.968 26.2715C157.849 30.6442 157.717 34.7013 155.711 34.7013C153.705 34.7013 153.052 35.2092 153.052 35.2092C153.052 35.2092 156.891 37.7629 154.915 39.0397C152.938 40.3165 150.902 38.7857 150.902 38.7857C150.902 38.7857 151.752 37.0009 149.249 34.6669C146.746 32.333 137.739 28.2553 137.739 28.2553Z" fill="#263238" fill-opacity="0.88" stroke="#263238" stroke-opacity="0.88" stroke-linecap="round" stroke-linejoin="round"/>
<path d="M61.7464 286.442C79.0546 286.442 93.0856 282.815 93.0856 278.342C93.0856 273.868 79.0546 270.241 61.7464 270.241C44.4383 270.241 30.4072 273.868 30.4072 278.342C30.4072 282.815 44.4383 286.442 61.7464 286.442Z" fill="#263238" fill-opacity="0.88" stroke="#263238" stroke-opacity="0.88" stroke-linecap="round" stroke-linejoin="round"/>
<path d="M82.3848 110.796V117.358L90.7091 121.731C90.7091 121.731 91.5775 117.358 90.8828 109.601L82.3848 110.796Z" fill="#999999" stroke="#263238" stroke-opacity="0.88" stroke-linecap="round" stroke-linejoin="round"/>
<path d="M41.0671 268.278C39.1617 270.153 37.3615 272.164 35.6772 274.298C33.2817 277.394 32.8145 280.477 35.0424 281.952C37.2702 283.428 40.7676 283.044 44.5825 280.312C48.3973 277.58 48.2416 276.481 50.4694 275.575C52.6972 274.669 54.1286 272.829 54.1286 269.919C54.1286 267.008 46.0138 266.637 44.2651 266.486C42.5163 266.335 41.0671 268.278 41.0671 268.278Z" fill="white" stroke="#263238" stroke-opacity="0.88" stroke-linecap="round" stroke-linejoin="round"/>
<path d="M54.1113 269.918C54.1113 269.918 50.518 271.744 48.7753 273.406C47.0325 275.067 43.5591 281.046 39.4987 281.046C37.4309 281.048 35.3975 280.441 33.5938 279.282C33.5964 279.834 33.7312 280.376 33.9836 280.846C34.236 281.317 34.5962 281.7 35.0251 281.952C37.2529 283.408 40.7503 283.044 44.5652 280.312C48.38 277.579 48.2243 276.481 50.4521 275.575C52.6799 274.669 54.1113 272.836 54.1113 269.918Z" stroke="#263238" stroke-opacity="0.88" stroke-linecap="round" stroke-linejoin="round"/>
<path d="M81.4257 268.278C83.3311 270.153 85.1313 272.164 86.8156 274.298C89.2111 277.394 89.6783 280.477 87.4505 281.952C85.2226 283.428 81.7252 283.044 77.9103 280.312C74.0955 277.58 74.2512 276.481 72.0234 275.575C69.7956 274.669 68.3643 272.829 68.3643 269.919C68.3643 267.008 76.479 266.637 78.2278 266.486C79.9765 266.335 81.4257 268.278 81.4257 268.278Z" fill="white" stroke="#263238" stroke-opacity="0.88" stroke-linecap="round" stroke-linejoin="round"/>
<path d="M68.3818 269.918C68.3818 269.918 71.9751 271.744 73.7178 273.406C75.4606 275.067 78.934 281.046 82.9944 281.046C85.0622 281.048 87.0956 280.441 88.8993 279.282C88.8967 279.834 88.7619 280.376 88.5095 280.846C88.2571 281.317 87.8969 281.7 87.468 281.952C85.2402 283.408 81.7428 283.044 77.9279 280.312C74.1131 277.579 74.2688 276.481 72.041 275.575C69.8132 274.669 68.3818 272.836 68.3818 269.918Z" stroke="#263238" stroke-opacity="0.88" stroke-linecap="round" stroke-linejoin="round"/>
<path d="M36.4561 164.731C36.4561 164.731 37.4083 205.748 37.8874 211.768C38.3665 217.788 39.7798 231.456 39.7798 232.211C39.7798 232.966 40.5703 263.205 40.5703 263.205L39.139 265.951L39.6181 269.781L45.9782 271.237C49.1582 271.964 53.2965 273.063 53.9313 272.335C54.5661 271.607 54.7278 270.145 55.0452 268.141C55.3626 266.136 55.9974 262.484 55.3626 259.573C54.7278 256.663 56.1591 225.662 56.3208 224.934C56.4825 224.207 60.1416 194.263 60.1416 194.263C60.1416 194.263 62.5371 218.88 64.2739 226.349C66.0106 233.817 65.3878 244.945 66.0226 249.318C66.6574 253.69 67.933 268.463 68.0947 269.555C68.2564 270.646 68.5678 272.301 68.5678 272.301C68.5678 272.301 76.5209 271.024 77.9522 270.289C79.4034 269.676 80.8928 269.19 82.4078 268.834C82.4078 268.834 82.8809 258.441 82.2461 254.247C81.7836 251.299 81.5173 248.316 81.4496 245.322C81.4496 244.046 82.2461 203.578 82.2461 203.578L81.4496 164.381C81.4496 164.381 59.9799 166.935 51.7094 165.109C43.439 163.283 36.6178 162.191 36.6178 162.191L36.4561 164.731Z" fill="#008C73" fill-opacity="0.39" stroke="#263238" stroke-opacity="0.88" stroke-linecap="round" stroke-linejoin="round"/>
<path d="M51.7214 165.095C43.4509 163.276 36.6178 162.191 36.6178 162.191L36.4561 164.738C36.4561 164.738 36.51 167.093 36.5998 170.745C40.3907 171.96 48.0922 174.095 55.5363 174.095C63.4055 174.095 75.94 171.349 81.5814 170.038L81.4616 164.374C81.4616 164.374 59.9919 166.921 51.7214 165.095Z" fill="#263238" fill-opacity="0.88" stroke="#263238" stroke-opacity="0.88" stroke-linecap="round" stroke-linejoin="round"/>
<path d="M79.3477 257.466C79.4495 258.722 79.5153 259.443 79.5153 259.443" stroke="#263238" stroke-opacity="0.88" stroke-linecap="round" stroke-linejoin="round"/>
<path d="M76.9102 174.356C76.9102 174.356 77.509 209.585 77.509 222.882C77.509 232.081 78.4792 246.043 79.0781 253.773" stroke="#263238" stroke-opacity="0.88" stroke-linecap="round" stroke-linejoin="round"/>
<path d="M44.7207 172.365L46.17 210.587" stroke="#263238" stroke-opacity="0.88" stroke-linecap="round" stroke-linejoin="round"/>
<path d="M45.877 213.573V219.889" stroke="#263238" stroke-opacity="0.88" stroke-linecap="round" stroke-linejoin="round"/>
<path d="M53.4159 68.4477C52.6329 68.4525 51.8622 68.6711 51.1675 69.0853C50.4729 69.4995 49.8743 70.0975 49.4214 70.8297C48.431 72.3277 47.3289 73.7242 46.1276 75.0035L31.9043 83.7559L33.2937 145.991L33.8147 167.271C33.8147 167.271 44.7382 171.445 55.1467 171.445C65.5552 171.445 84.1143 166.64 84.1143 166.64C84.1143 166.64 82.5573 83.7284 83.0783 83.7284C83.5993 83.7284 72.8435 73.0196 67.9866 70.2051C63.1297 67.3905 53.4159 68.4477 53.4159 68.4477Z" fill="#008C73" fill-opacity="0.39" stroke="#263238" stroke-opacity="0.88" stroke-linecap="round" stroke-linejoin="round"/>
<path d="M49.3623 75.9712C49.3623 75.9712 54.872 87.6068 57.1956 92.9269C59.5192 98.247 63.8551 105.901 63.8551 105.901L71.1075 83.6322" stroke="#263238" stroke-opacity="0.88" stroke-linecap="round" stroke-linejoin="round"/>
<path d="M53.4339 149.773L53.1524 140.486L36.7852 139.394C36.7852 139.394 36.9469 153.068 37.2643 153.81" stroke="#263238" stroke-opacity="0.88" stroke-linecap="round" stroke-linejoin="round"/>
<path d="M53.6316 156.35L53.5537 153.741" stroke="#263238" stroke-opacity="0.88" stroke-linecap="round" stroke-linejoin="round"/>
<path d="M73.0357 154.887L72.5566 139.579C72.5566 139.579 78.2819 140.121 83.0549 136.476" stroke="#263238" stroke-opacity="0.88" stroke-linecap="round" stroke-linejoin="round"/>
<path d="M48.4931 103.1C48.9961 104.92 50.5293 105.99 51.9127 105.482C53.2961 104.975 53.9968 103.087 53.4877 101.268C52.9787 99.4485 51.4515 98.3776 50.0681 98.8856C48.6847 99.3935 47.984 101.281 48.4931 103.1Z" stroke="#263238" stroke-opacity="0.88" stroke-linecap="round" stroke-linejoin="round"/>
<path d="M48.6556 71.2485C48.6556 71.2485 46.817 79.3488 50.9972 101.336" stroke="#263238" stroke-opacity="0.88" stroke-width="2" stroke-linecap="round" stroke-linejoin="round"/>
<path d="M52.2847 102.092C52.1615 102.376 51.9696 102.615 51.7317 102.778C51.4938 102.942 51.22 103.023 50.9428 103.014C50.6656 103.004 50.3965 102.904 50.1677 102.724C49.9388 102.545 49.7597 102.293 49.6517 102.001C49.5436 101.708 49.5111 101.386 49.558 101.072C49.6049 100.759 49.7293 100.468 49.9164 100.233C50.1034 99.9982 50.3453 99.83 50.6133 99.7481C50.8813 99.6663 51.1642 99.6743 51.4284 99.7713C51.8088 99.951 52.1121 100.295 52.2724 100.73C52.4327 101.164 52.4372 101.653 52.2847 102.092Z" stroke="#263238" stroke-opacity="0.88" stroke-linecap="round" stroke-linejoin="round"/>
<path d="M82.3838 82.5615C82.3838 82.5615 84.983 84.7514 85.1566 85.5477C85.3303 86.344 94.1757 110.597 94.1757 110.597L81.3418 112.766L81.5155 98.4464" fill="#008C73" fill-opacity="0.39"/>
<path d="M82.3838 82.5615C82.3838 82.5615 84.983 84.7514 85.1566 85.5477C85.3303 86.344 94.1757 110.597 94.1757 110.597L81.3418 112.766L81.5155 98.4463" stroke="#263238" stroke-opacity="0.88" stroke-linecap="round" stroke-linejoin="round"/>
<path d="M33.6418 82.9595C33.6418 82.9595 30.6894 83.3576 29.9947 85.9387C29.3 88.5198 24.2754 114.77 24.2754 114.77L42.6609 112.766L40.9242 93.078" fill="#008C73" fill-opacity="0.39"/>
<path d="M33.6418 82.9595C33.6418 82.9595 30.6894 83.3576 29.9947 85.9387C29.3 88.5198 24.2754 114.77 24.2754 114.77L42.6609 112.766L40.9242 93.078" stroke="#263238" stroke-opacity="0.88" stroke-linecap="round" stroke-linejoin="round"/>
<path d="M69.1543 70.0129C69.1543 70.0129 73.7117 72.9922 74.1609 80.406C74.6101 87.8199 74.1609 89.7008 74.1609 89.7008" stroke="#263238" stroke-opacity="0.88" stroke-width="2" stroke-linecap="round" stroke-linejoin="round"/>
<path d="M76.2222 99.1946C76.2222 99.1946 75.8149 107.961 74.9825 110.494C74.15 113.027 70.8562 116.027 68.2451 116.507" stroke="#263238" stroke-opacity="0.88" stroke-linecap="round" stroke-linejoin="round"/>
<path d="M70.3227 98.2471C70.3227 98.2471 69.9574 108.359 69.9215 110.24C69.8855 112.121 71.5384 115.395 73.91 118.532" stroke="#263238" stroke-opacity="0.88" stroke-linecap="round" stroke-linejoin="round"/>
<path d="M74.5895 119.634L74.6593 119.569C74.9855 119.266 75.0355 118.717 74.7709 118.343L74.4352 117.868C74.1706 117.494 73.6917 117.437 73.3654 117.74L73.2957 117.805C72.9694 118.108 72.9194 118.657 73.184 119.031L73.5197 119.506C73.7843 119.88 74.2632 119.937 74.5895 119.634Z" fill="#263238" fill-opacity="0.88"/>
<path d="M67.3065 116.828L67.3232 116.929C67.4014 117.402 67.7994 117.713 68.2121 117.623L68.7358 117.509C69.1485 117.42 69.4197 116.964 69.3415 116.49L69.3247 116.389C69.2465 115.916 68.8486 115.605 68.4359 115.695L67.9122 115.809C67.4995 115.898 67.2283 116.355 67.3065 116.828Z" fill="#263238" fill-opacity="0.88"/>
<path d="M76.3115 99.8603L76.1379 92.4945C76.1217 91.7262 75.8562 90.9924 75.3933 90.4364C74.9304 89.8804 74.3033 89.5422 73.6346 89.4878C72.9242 89.4271 72.2218 89.6913 71.6809 90.2226C71.14 90.7539 70.8046 91.509 70.748 92.3229L70.209 99.7916" stroke="#263238" stroke-opacity="0.88" stroke-width="2" stroke-linecap="round" stroke-linejoin="round"/>
<path d="M91.229 116.761L87.0908 115.766L72.5201 112.986L52.0865 108.524L47.2415 106.073C47.2415 106.073 42.6601 99.2083 42.2649 98.5218C41.8696 97.8353 36.6893 100.231 36.875 101.144C37.0606 102.057 37.6715 111.18 38.0727 111.757C38.474 112.334 42.9476 112.327 42.9476 112.327C42.9476 112.327 64.2916 124.134 65.1779 124.566C77.4968 130.518 83.4376 130.463 85.5397 130.854C87.6417 131.246 89.0132 130.271 90.2229 128.678C91.4326 127.086 91.229 116.761 91.229 116.761Z" fill="#999999" stroke="#263238" stroke-opacity="0.88" stroke-linecap="round" stroke-linejoin="round"/>
<path d="M41.6423 98.4255C41.6423 98.4255 39.157 98.5422 35.4739 101.391C34.1024 102.455 33.3838 103.217 33.3838 103.677C33.4623 104.224 33.597 104.759 33.785 105.27C36.1729 103.952 38.6736 102.921 41.247 102.194" fill="#999999"/>
<path d="M41.6423 98.4255C41.6423 98.4255 39.157 98.5422 35.4739 101.391C34.1024 102.455 33.3838 103.217 33.3838 103.677C33.4623 104.224 33.597 104.759 33.785 105.27C36.1729 103.952 38.6736 102.921 41.247 102.194" stroke="#263238" stroke-opacity="0.88" stroke-linecap="round" stroke-linejoin="round"/>
<path d="M42.6362 105.729C42.6362 105.729 35.8749 107.665 34.7789 107.899C33.683 108.132 33.4854 106.869 33.4854 106.416C33.4854 105.963 33.7848 105.269 34.9766 104.59C36.1683 103.91 42.1631 102.077 42.1631 102.077" fill="#999999"/>
<path d="M42.6362 105.729C42.6362 105.729 35.8749 107.665 34.7789 107.899C33.683 108.132 33.4854 106.869 33.4854 106.416C33.4854 105.963 33.7848 105.269 34.9766 104.59C36.1683 103.91 42.1631 102.077 42.1631 102.077" stroke="#263238" stroke-opacity="0.88" stroke-linecap="round" stroke-linejoin="round"/>
<path d="M43.3368 109.265C43.3368 109.265 35.4736 110.178 34.8747 109.608C34.6915 109.379 34.5525 109.109 34.4668 108.814C34.3812 108.52 34.3508 108.208 34.3777 107.899L41.4444 106.183" fill="#999999"/>
<path d="M43.3368 109.265C43.3368 109.265 35.4736 110.178 34.8747 109.608C34.6915 109.379 34.5525 109.109 34.4668 108.814C34.3812 108.52 34.3508 108.208 34.3777 107.899L41.4444 106.183" stroke="#263238" stroke-opacity="0.88" stroke-linecap="round" stroke-linejoin="round"/>
<path d="M41.1457 109.718L35.0791 110.061C35.0791 110.061 35.3726 111.091 35.678 111.201C37.1152 111.607 38.5795 111.876 40.0558 112.004C41.0238 112.04 41.9884 112.155 42.9423 112.347" fill="#999999"/>
<path d="M41.1457 109.718L35.0791 110.061C35.0791 110.061 35.3726 111.091 35.678 111.201C37.1152 111.607 38.5795 111.876 40.0558 112.004C41.0238 112.04 41.9884 112.155 42.9423 112.347" stroke="#263238" stroke-opacity="0.88" stroke-linecap="round" stroke-linejoin="round"/>
<path d="M28.0898 114.373C28.0898 114.373 30.8626 128.102 31.5573 129.09C32.252 130.079 37.9773 129.09 43.7025 127.1C49.4278 125.109 73.7122 113.185 73.7122 113.185L77.1797 113.974C77.1797 113.974 75.7903 109.004 73.3649 108.805C70.9394 108.606 42.6605 112.766 42.6605 112.766L28.0898 114.373Z" fill="#999999" stroke="#263238" stroke-opacity="0.88" stroke-linecap="round" stroke-linejoin="round"/>
<path d="M52.3564 59.6953C52.3564 59.6953 52.3564 59.9905 52.3564 60.4916C52.4103 63.1071 52.6319 71.4133 53.2128 73.4178C53.9075 75.7998 63.274 95.8858 63.9926 94.2932C64.7113 92.7006 69.0232 71.0289 69.0232 71.0289V62.4824C69.0232 62.4824 66.7654 64.6653 62.6032 64.6653C58.441 64.6653 52.3564 59.6953 52.3564 59.6953Z" fill="#999999" stroke="#263238" stroke-opacity="0.88" stroke-linecap="round" stroke-linejoin="round"/>
<path d="M66.2504 71.4751C67.2216 70.7952 68.1501 70.0382 69.0292 69.2097V62.4824C69.0292 62.4824 66.7714 64.6653 62.6092 64.6653C58.447 64.6653 52.3564 59.6953 52.3564 59.6953C52.3564 59.6953 52.3564 59.9905 52.3564 60.4916C52.3564 61.4115 52.4163 63.0384 52.4882 64.8507C52.6525 65.1524 52.8367 65.4393 53.0392 65.7088C54.2369 67.2945 59.9741 71.276 61.3635 71.6741C62.7529 72.0723 64.6873 72.4636 66.2504 71.4751Z" fill="#263238" fill-opacity="0.88" stroke="#263238" stroke-opacity="0.88" stroke-linecap="round" stroke-linejoin="round"/>
<path d="M73.1914 48.1624C73.1914 48.1624 75.9642 46.3707 75.9642 49.755C75.9642 53.1392 73.3651 57.1139 73.3651 57.1139L73.1914 48.1624Z" fill="#999999" stroke="#263238" stroke-opacity="0.88" stroke-linecap="round" stroke-linejoin="round"/>
<path d="M48.3863 48.3616C48.3863 48.3616 44.5654 47.1671 44.5654 51.1486C44.5654 55.1301 48.0389 57.7044 48.0389 57.7044H50.4344C50.4344 57.7044 51.8238 61.6859 53.0395 63.2716C54.2552 64.8574 59.9745 68.8389 61.3639 69.237C62.7533 69.6352 64.6577 70.0333 66.2208 69.0379C68.1846 67.6347 69.9942 65.9661 71.6107 64.0679C72.3054 63.0794 73.5211 56.3177 73.5211 56.3177C73.5211 56.3177 73.8684 44.1879 73.1738 40.0142C72.4791 35.8404 67.9695 29.2778 61.7232 28.4815C55.477 27.6852 49.578 33.4515 48.7156 38.0234C47.8533 42.5953 48.3863 48.3616 48.3863 48.3616Z" fill="#999999" stroke="#263238" stroke-opacity="0.88" stroke-linecap="round" stroke-linejoin="round"/>
<path d="M59.6568 51.5469C59.6568 51.5469 58.4591 54.3271 60.5252 55.1234C62.5913 55.9197 65.2084 55.7206 65.7294 54.5261C66.2504 53.3317 65.3821 51.945 65.3821 51.945" stroke="#263238" stroke-opacity="0.88" stroke-linecap="round" stroke-linejoin="round"/>
<path d="M57.5791 56.5168C57.5791 56.5168 61.915 60.6906 67.8139 56.7159" stroke="#263238" stroke-opacity="0.88" stroke-linecap="round" stroke-linejoin="round"/>
<path d="M60.0039 60.2927C60.0039 60.2927 63.6511 62.6816 66.0765 59.8945" stroke="#263238" stroke-opacity="0.88" stroke-linecap="round" stroke-linejoin="round"/>
<path d="M57.926 49.1579C58.4056 49.1579 58.7944 48.4448 58.7944 47.5653C58.7944 46.6857 58.4056 45.9727 57.926 45.9727C57.4464 45.9727 57.0576 46.6857 57.0576 47.5653C57.0576 48.4448 57.4464 49.1579 57.926 49.1579Z" fill="#263238" fill-opacity="0.88"/>
<path d="M67.2924 47.3663C67.2924 48.2449 66.9031 48.9589 66.424 48.9589C65.9449 48.9589 65.5557 48.2724 65.5557 47.3663C65.5557 46.4601 65.9449 45.7805 66.424 45.7805C66.9031 45.7805 67.2924 46.4876 67.2924 47.3663Z" fill="#263238" fill-opacity="0.88"/>
<path d="M55.4941 45.3823C55.4941 45.3823 56.3625 43.7897 59.6863 44.3869" stroke="#263238" stroke-opacity="0.88" stroke-linecap="round" stroke-linejoin="round"/>
<path d="M65.0352 44.5861C65.0352 44.5861 66.5982 41.799 69.0297 44.5861" stroke="#263238" stroke-opacity="0.88" stroke-linecap="round" stroke-linejoin="round"/>
<path d="M73.1914 40.0003C72.9661 38.8196 72.5758 37.6884 72.0356 36.6504C71.8336 37.751 71.7631 38.878 71.826 40.0003C72.0775 41.4557 72.9699 43.4876 72.9699 44.5036C72.9699 45.5195 72.8381 49.5903 73.4729 49.0136C73.5358 48.9375 73.5865 48.8491 73.6226 48.7528C73.6623 45.8272 73.5182 42.9022 73.1914 40.0003Z" fill="#263238" fill-opacity="0.88" stroke="#263238" stroke-opacity="0.88" stroke-linecap="round" stroke-linejoin="round"/>
<path d="M64.4718 31.7632C65.5855 31.6956 66.6939 31.5419 67.7896 31.3032C66.0202 29.7849 63.9348 28.8241 61.7409 28.5162C55.4946 27.7199 49.5957 33.4862 48.7333 38.0581C47.871 42.6299 48.386 48.3963 48.386 48.3963C48.386 48.3963 49.7634 49.4946 50.2724 48.3345C50.7815 47.1743 50.2724 45.2797 50.7815 43.2478C51.2905 41.2158 52.0451 40.193 52.1709 38.5935C52.2966 36.9941 51.4103 34.6738 51.9194 33.3626C52.4284 32.0515 55.5965 29.5871 57.6266 30.4589C59.8109 31.4072 62.1374 31.8505 64.4718 31.7632Z" fill="#263238" fill-opacity="0.88" stroke="#263238" stroke-opacity="0.88" stroke-linecap="round" stroke-linejoin="round"/>
</svg>
