<svg width="175" height="201" viewBox="0 0 175 201" fill="none" xmlns="http://www.w3.org/2000/svg">
<path fill-rule="evenodd" clip-rule="evenodd" d="M81.9198 17.9919C83.9926 16.6064 86.3693 15.874 88.7922 15.874C91.2151 15.874 93.5918 16.6064 95.6647 17.9919L100.545 21.2886C107.392 25.9109 115.191 26.9401 123.025 27.9773C125.557 28.3133 128.092 28.6467 130.601 29.1044C130.601 29.1044 130.656 33.9568 130.598 36.1582L130.098 55.0785C129.666 71.3054 123.133 86.691 111.925 97.8722C106.638 103.145 101.168 107.911 94.8836 111.869C93.0314 113.025 90.955 113.673 88.8288 113.759C86.7027 113.845 84.5888 113.367 82.6649 112.363C75.4079 108.553 68.9823 103.722 63.1149 97.8722C51.9072 86.691 45.3737 71.3054 44.9449 55.0785L44.4465 36.219C44.3866 33.986 44.4465 29.1044 44.4465 29.1044C46.483 28.8398 48.5578 28.6202 50.6494 28.4006C59.8805 27.4322 69.4183 26.4321 77.2431 21.151L81.9198 17.9919ZM82.708 58.2086V39.6877H92.2913V58.2086H109.062V68.7919H92.2913V87.3127H82.708V68.7919H65.9372V58.2086H82.708Z" fill="white"/>
<path d="M2.15199 194V172.182H10.5043C12.081 172.182 13.3913 172.43 14.4354 172.928C15.4865 173.418 16.2713 174.089 16.7898 174.941C17.3153 175.793 17.5781 176.759 17.5781 177.839C17.5781 178.727 17.4077 179.487 17.0668 180.119C16.7259 180.744 16.2678 181.251 15.6925 181.642C15.1172 182.033 14.4744 182.313 13.7642 182.484V182.697C14.5384 182.739 15.2805 182.977 15.9908 183.411C16.7081 183.837 17.294 184.44 17.7486 185.222C18.2031 186.003 18.4304 186.947 18.4304 188.055C18.4304 189.185 18.157 190.2 17.6101 191.102C17.0632 191.997 16.2393 192.704 15.1385 193.222C14.0376 193.741 12.6527 194 10.9837 194H2.15199ZM6.1044 190.697H10.3551C11.7898 190.697 12.8232 190.424 13.4553 189.877C14.0945 189.323 14.4141 188.613 14.4141 187.746C14.4141 187.1 14.2543 186.518 13.9347 185.999C13.6151 185.474 13.1605 185.062 12.571 184.763C11.9815 184.458 11.2784 184.305 10.4616 184.305H6.1044V190.697ZM6.1044 181.461H10.0142C10.696 181.461 11.3104 181.337 11.8572 181.088C12.4041 180.832 12.8338 180.474 13.1463 180.012C13.4659 179.543 13.6257 178.989 13.6257 178.35C13.6257 177.505 13.3274 176.809 12.7308 176.262C12.1413 175.715 11.2642 175.442 10.0994 175.442H6.1044V181.461ZM28.9426 194.32C27.302 194.32 25.8851 193.979 24.6919 193.297C23.5059 192.608 22.5932 191.635 21.954 190.378C21.3148 189.114 20.9952 187.626 20.9952 185.914C20.9952 184.231 21.3148 182.754 21.954 181.482C22.6003 180.204 23.5023 179.21 24.66 178.499C25.8176 177.782 27.1777 177.423 28.7402 177.423C29.7488 177.423 30.7005 177.587 31.5953 177.913C32.4973 178.233 33.2928 178.73 33.9817 179.405C34.6777 180.08 35.2246 180.939 35.6223 181.983C36.0201 183.02 36.2189 184.256 36.2189 185.69V186.873H22.8063V184.273H32.5222C32.5151 183.535 32.3553 182.878 32.0428 182.303C31.7303 181.72 31.2935 181.262 30.7324 180.928C30.1784 180.594 29.5321 180.428 28.7935 180.428C28.0051 180.428 27.3127 180.619 26.7161 181.003C26.1195 181.379 25.6543 181.876 25.3205 182.494C24.9938 183.105 24.8269 183.776 24.8198 184.508V186.777C24.8198 187.729 24.9938 188.545 25.3418 189.227C25.6898 189.902 26.1763 190.42 26.8013 190.783C27.4263 191.138 28.1578 191.315 28.9959 191.315C29.557 191.315 30.0648 191.237 30.5194 191.081C30.9739 190.918 31.3681 190.68 31.7019 190.367C32.0357 190.055 32.2878 189.668 32.4583 189.206L36.0591 189.611C35.8319 190.562 35.3986 191.393 34.7594 192.104C34.1273 192.807 33.3176 193.354 32.3304 193.744C31.3432 194.128 30.214 194.32 28.9426 194.32ZM53.6293 177.636L47.8018 194H43.5405L37.7131 177.636H41.8253L45.5859 189.792H45.7564L49.5277 177.636H53.6293ZM62.9856 194.32C61.345 194.32 59.9281 193.979 58.7349 193.297C57.5488 192.608 56.6362 191.635 55.997 190.378C55.3578 189.114 55.0382 187.626 55.0382 185.914C55.0382 184.231 55.3578 182.754 55.997 181.482C56.6433 180.204 57.5453 179.21 58.7029 178.499C59.8606 177.782 61.2207 177.423 62.7832 177.423C63.7917 177.423 64.7434 177.587 65.6383 177.913C66.5403 178.233 67.3358 178.73 68.0247 179.405C68.7207 180.08 69.2676 180.939 69.6653 181.983C70.063 183.02 70.2619 184.256 70.2619 185.69V186.873H56.8493V184.273H66.5652C66.5581 183.535 66.3983 182.878 66.0858 182.303C65.7733 181.72 65.3365 181.262 64.7754 180.928C64.2214 180.594 63.5751 180.428 62.8365 180.428C62.0481 180.428 61.3556 180.619 60.7591 181.003C60.1625 181.379 59.6973 181.876 59.3635 182.494C59.0368 183.105 58.8699 183.776 58.8627 184.508V186.777C58.8627 187.729 59.0368 188.545 59.3848 189.227C59.7328 189.902 60.2193 190.42 60.8443 190.783C61.4693 191.138 62.2008 191.315 63.0389 191.315C63.6 191.315 64.1078 191.237 64.5623 191.081C65.0169 190.918 65.411 190.68 65.7449 190.367C66.0787 190.055 66.3308 189.668 66.5012 189.206L70.1021 189.611C69.8748 190.562 69.4416 191.393 68.8024 192.104C68.1703 192.807 67.3606 193.354 66.3734 193.744C65.3862 194.128 64.2569 194.32 62.9856 194.32ZM81.1364 194V172.182H85.0888V181.418H95.1989V172.182H99.1619V194H95.1989V184.732H85.0888V194H81.1364ZM110.534 194.32C108.894 194.32 107.477 193.979 106.284 193.297C105.098 192.608 104.185 191.635 103.546 190.378C102.907 189.114 102.587 187.626 102.587 185.914C102.587 184.231 102.907 182.754 103.546 181.482C104.192 180.204 105.094 179.21 106.252 178.499C107.409 177.782 108.77 177.423 110.332 177.423C111.341 177.423 112.292 177.587 113.187 177.913C114.089 178.233 114.885 178.73 115.574 179.405C116.27 180.08 116.816 180.939 117.214 181.983C117.612 183.02 117.811 184.256 117.811 185.69V186.873H104.398V184.273H114.114C114.107 183.535 113.947 182.878 113.635 182.303C113.322 181.72 112.885 181.262 112.324 180.928C111.77 180.594 111.124 180.428 110.385 180.428C109.597 180.428 108.904 180.619 108.308 181.003C107.711 181.379 107.246 181.876 106.912 182.494C106.586 183.105 106.419 183.776 106.412 184.508V186.777C106.412 187.729 106.586 188.545 106.934 189.227C107.282 189.902 107.768 190.42 108.393 190.783C109.018 191.138 109.75 191.315 110.588 191.315C111.149 191.315 111.657 191.237 112.111 191.081C112.566 190.918 112.96 190.68 113.294 190.367C113.627 190.055 113.88 189.668 114.05 189.206L117.651 189.611C117.424 190.562 116.99 191.393 116.351 192.104C115.719 192.807 114.909 193.354 113.922 193.744C112.935 194.128 111.806 194.32 110.534 194.32ZM125.782 194.33C124.745 194.33 123.811 194.146 122.98 193.776C122.156 193.4 121.503 192.846 121.02 192.114C120.544 191.383 120.306 190.481 120.306 189.408C120.306 188.485 120.477 187.722 120.818 187.118C121.159 186.514 121.624 186.031 122.213 185.669C122.803 185.307 123.467 185.033 124.205 184.849C124.951 184.657 125.722 184.518 126.517 184.433C127.476 184.334 128.254 184.245 128.85 184.167C129.447 184.082 129.88 183.954 130.15 183.783C130.427 183.606 130.566 183.332 130.566 182.963V182.899C130.566 182.097 130.328 181.475 129.852 181.035C129.376 180.594 128.691 180.374 127.796 180.374C126.851 180.374 126.102 180.58 125.548 180.992C125.001 181.404 124.632 181.891 124.44 182.452L120.839 181.94C121.123 180.946 121.592 180.115 122.245 179.447C122.899 178.773 123.698 178.268 124.642 177.935C125.587 177.594 126.631 177.423 127.774 177.423C128.563 177.423 129.347 177.516 130.129 177.7C130.91 177.885 131.624 178.19 132.27 178.616C132.916 179.036 133.435 179.607 133.825 180.332C134.223 181.056 134.422 181.962 134.422 183.048V194H130.715V191.752H130.587C130.352 192.207 130.022 192.633 129.596 193.031C129.177 193.421 128.648 193.737 128.009 193.979C127.377 194.213 126.634 194.33 125.782 194.33ZM126.784 191.496C127.558 191.496 128.229 191.344 128.797 191.038C129.365 190.726 129.802 190.314 130.107 189.803C130.42 189.291 130.576 188.734 130.576 188.13V186.202C130.455 186.301 130.249 186.393 129.958 186.479C129.674 186.564 129.355 186.638 128.999 186.702C128.644 186.766 128.293 186.823 127.945 186.873C127.597 186.923 127.295 186.965 127.039 187.001C126.464 187.079 125.949 187.207 125.494 187.384C125.04 187.562 124.681 187.81 124.419 188.13C124.156 188.442 124.024 188.847 124.024 189.344C124.024 190.055 124.284 190.591 124.802 190.953C125.32 191.315 125.981 191.496 126.784 191.496ZM142.156 172.182V194H138.3V172.182H142.156ZM154.293 177.636V180.619H144.886V177.636H154.293ZM147.209 173.716H151.065V189.078C151.065 189.597 151.143 189.994 151.3 190.271C151.463 190.541 151.676 190.726 151.939 190.825C152.202 190.925 152.493 190.974 152.812 190.974C153.054 190.974 153.274 190.957 153.473 190.921C153.679 190.886 153.835 190.854 153.942 190.825L154.592 193.84C154.386 193.911 154.091 193.989 153.707 194.075C153.331 194.16 152.869 194.21 152.322 194.224C151.357 194.252 150.487 194.107 149.712 193.787C148.938 193.46 148.324 192.956 147.869 192.274C147.422 191.592 147.202 190.74 147.209 189.717V173.716ZM161.727 184.412V194H157.87V172.182H161.642V180.417H161.833C162.217 179.494 162.81 178.766 163.612 178.233C164.422 177.693 165.452 177.423 166.702 177.423C167.838 177.423 168.829 177.661 169.674 178.137C170.519 178.613 171.173 179.309 171.634 180.225C172.103 181.141 172.338 182.26 172.338 183.581V194H168.481V184.178C168.481 183.077 168.197 182.221 167.629 181.61C167.068 180.992 166.279 180.683 165.264 180.683C164.582 180.683 163.971 180.832 163.431 181.131C162.899 181.422 162.48 181.844 162.174 182.398C161.876 182.952 161.727 183.624 161.727 184.412Z" fill="white"/>
</svg>
